<?xml version="1.0" encoding="utf-8"?>
<!-- Generator: Adobe Illustrator 15.0.0, SVG Export Plug-In . SVG Version: 6.00 Build 0)  -->
<!DOCTYPE svg PUBLIC "-//W3C//DTD SVG 1.1//EN" "http://www.w3.org/Graphics/SVG/1.1/DTD/svg11.dtd">
<svg version="1.1" id="Layer_1" xmlns="http://www.w3.org/2000/svg" xmlns:xlink="http://www.w3.org/1999/xlink" x="0px" y="0px"
	 width="3197.439px" height="5615px" viewBox="0 0 3197.439 5615" enable-background="new 0 0 3197.439 5615" xml:space="preserve">
<g>
	<circle fill="#ED1F24" cx="355.087" cy="391.304" r="219.255"/>
	<path fill="#FFFFFF" d="M498.314,424.258c0,0,13.089-29.308-81.377-15.935c0,0-36.99-11.666-61.46-74.264
		c0,0,5.69-35.282,5.406-51.501c0,0-7.968,30.161-9.958,35.567c0,0-15.935-58.614-2.277-71.703c0,0,9.3,1.991,13.471,31.014
		c0,0,6.162-33.488-14.325-34.713c0,0-15.65,0.854-16.787,15.649c0,0-2.277,43.25,11.666,81.662c0,0-68.573,161.331-107.555,166.738
		c0,0-3.699-15.365,46.095-57.477c0,0-76.255,42.681-50.647,58.899c0,0,12.52,11.951,32.153-5.122c0,0,18.495-13.943,42.111-59.753
		c0,0,49.509-16.787,104.994-25.039c0,0,76.54,43.25,88.491,13.089v-3.414c0,0-6.261,19.348-67.436-12.235
		C430.878,415.722,488.924,408.893,498.314,424.258z M308.244,435.924c21.625-32.153,40.688-81.378,40.688-81.378
		c17.641,36.421,48.94,56.623,48.94,56.623C355.761,418.851,308.244,435.924,308.244,435.924z"/>
</g>
<g>
	<circle fill="#0973BA" cx="980.815" cy="391.304" r="219.256"/>
	<path fill="#FFFFFF" d="M953.788,264.542c0,0,46.104-0.505,86.13,43.57c0,0-18.745-63.835-58.263-62.822
		C981.655,245.29,958.348,242.756,953.788,264.542z"/>
	<path fill="#FFFFFF" d="M1044.985,328.376c0,0-44.3-52.182-103.357-47.114c0,0-48.13-2.535-42.05,46.104
		c0,0,60.818-14.693,91.965,3.547c0,0-89.434,11.654-84.366,84.1c0,0-1.519,60.798,76.503,55.732c0,0,84.104-7.094,74.477-107.915
		c0,0,16.41,1.523,29.386,9.628C1087.543,372.458,1101.037,327.263,1044.985,328.376z M996.853,433.761
		c-44.078,13.681-43.065-23.811-43.065-23.811c3.04-48.135,62.316-49.651,62.316-49.651
		C1046.502,412.985,996.853,433.761,996.853,433.761z"/>
	<path fill="#FFFFFF" d="M1006.479,520.399c0,11.468-9.301,20.769-20.772,20.769c-11.474,0-20.772-9.301-20.772-20.769
		c0-11.476,9.298-20.776,20.772-20.776C997.178,499.623,1006.479,508.924,1006.479,520.399z"/>
</g>
<g>
	<circle fill="#207F3F" cx="1606.542" cy="391.304" r="219.255"/>
	<polygon fill="#FFFFFF" points="1664.548,501.84 1728.457,501.84 1641.928,370.504 1716.25,257.694 1652.34,257.694 
		1609.973,322.002 1567.607,257.694 1503.697,257.694 1578.018,370.504 1491.49,501.84 1534.575,501.84 1555.398,501.84 
		1616.076,501.84 1616.076,459.475 1583.311,459.475 1609.973,419.006 	"/>
</g>
<g>
	<circle fill="#FFCA1C" cx="2232.269" cy="391.304" r="219.255"/>
	<rect x="2305.63" y="221.597" fill="#FFFFFF" width="30.933" height="14.528"/>
	<rect x="2336.563" y="236.125" fill="#FFFFFF" width="30.934" height="14.529"/>
	<rect x="2305.63" y="250.654" fill="#FFFFFF" width="30.933" height="14.53"/>
	<rect x="2336.563" y="265.185" fill="#FFFFFF" width="30.934" height="14.528"/>
	<path fill="#FFFFFF" d="M2336.7,279.713c-12.399,0-22.45,10.051-22.45,22.45v35.729c0,12.399,10.051,22.451,22.45,22.451
		c12.4,0,22.451-10.052,22.451-22.451v-35.729C2359.151,289.764,2349.101,279.713,2336.7,279.713z M2344.157,347.671h-14.913
		v-32.038h14.913V347.671z"/>
	<g>
		<path fill="#FFFFFF" d="M2111.151,392.332h90.576v20.7l-58.143,60.62h60.261v22.256h-98.276V474.43l57.534-59.983h-51.952V392.332
			z"/>
		<path fill="#FFFFFF" d="M2219.532,392.332h32.076v103.576h-32.076V392.332z"/>
		<path fill="#FFFFFF" d="M2274.429,392.332h53.202c11.585,0,20.265,2.756,26.034,8.267s8.655,13.354,8.655,23.526
			c0,10.458-3.144,18.63-9.433,24.518c-6.287,5.888-15.885,8.831-28.79,8.831h-17.522v38.435h-32.146V392.332z M2306.575,436.49
			h7.843c6.17,0,10.503-1.071,13-3.215c2.496-2.143,3.744-4.886,3.744-8.23c0-3.251-1.084-6.006-3.25-8.268
			c-2.166-2.26-6.241-3.391-12.223-3.391h-9.114V436.49z"/>
	</g>
</g>
<g>
	<circle fill="#D14527" cx="2857.996" cy="391.304" r="219.255"/>
	<g>
		<path fill="#FFFFFF" d="M2786.109,283.611h113.186c24.65,0,43.112,5.862,55.389,17.587c12.274,11.723,18.413,28.408,18.413,50.052
			c0,22.247-6.688,39.634-20.067,52.159c-13.377,12.527-33.796,18.788-61.25,18.788h-37.278v81.771h-68.392V283.611z
			 M2854.501,377.555h16.685c13.127,0,22.346-2.276,27.658-6.839c5.31-4.558,7.966-10.395,7.966-17.511
			c0-6.914-2.307-12.776-6.915-17.586c-4.609-4.81-13.278-7.216-26.004-7.216h-19.39V377.555z"/>
	</g>
</g>
<g>
	<circle fill="#F26822" cx="1606.542" cy="1042.369" r="219.255"/>
	<g>
		<path fill="#FFFFFF" d="M1590.032,1092.355h-58.273l-8.098,27.421h-52.408l62.434-166.11h55.988l62.418,166.11h-53.752
			L1590.032,1092.355z M1579.384,1056.437l-18.334-59.713l-18.145,59.713H1579.384z"/>
		<path fill="#FFFFFF" d="M1667.05,953.666h46.117v31.386h-46.117V953.666z M1667.05,999.442h46.117v120.334h-46.117V999.442z"/>
	</g>
</g>
<g>
	<circle fill="#125AA9" cx="980.815" cy="1042.369" r="219.256"/>
	<g>
		<path fill="#FFFFFF" d="M886.259,1135.617V934.226h51.844c19.646,0,32.452,1.009,38.419,3.022
			c9.169,3.022,16.844,9.594,23.03,19.712c6.184,10.121,9.278,23.196,9.278,39.221c0,12.365-1.784,22.76-5.349,31.186
			c-3.565,8.427-8.096,15.042-13.588,19.851c-5.496,4.809-11.079,7.991-16.754,9.547c-7.714,1.923-18.882,2.886-33.507,2.886
			h-21.066v75.968H886.259z M918.566,968.294v57.148h17.682c12.732,0,21.246-1.052,25.54-3.16c4.292-2.105,7.657-5.402,10.096-9.891
			c2.437-4.486,3.657-9.707,3.657-15.661c0-7.326-1.711-13.37-5.131-18.133c-3.42-4.762-7.749-7.738-12.988-8.93
			c-3.857-0.914-11.606-1.374-23.248-1.374H918.566z"/>
		<path fill="#FFFFFF" d="M1024.329,1093.993l30.778-5.907c1.31,7.51,3.965,13.211,7.968,17.104
			c4.001,3.893,9.605,5.837,16.808,5.837c7.93,0,13.898-1.83,17.901-5.493c2.69-2.563,4.038-5.999,4.038-10.304
			c0-2.93-0.729-5.358-2.184-7.281c-1.527-1.831-4.949-3.524-10.26-5.083c-24.74-6.868-40.421-13.142-47.042-18.819
			c-9.168-7.877-13.751-18.821-13.751-32.834c0-12.639,3.964-23.262,11.896-31.87c7.93-8.607,20.228-12.914,36.891-12.914
			c15.862,0,27.649,3.253,35.363,9.753c7.713,6.504,13.024,16.121,15.936,28.85l-28.923,6.73c-1.239-5.676-3.586-10.027-7.04-13.05
			c-3.457-3.021-8.389-4.533-14.791-4.533c-8.076,0-13.86,1.421-17.354,4.258c-2.33,2.017-3.493,4.627-3.493,7.831
			c0,2.747,1.019,5.083,3.056,7.006c2.765,2.565,12.315,6.183,28.651,10.854c16.333,4.67,27.74,10.395,34.217,17.171
			c6.403,6.868,9.604,16.44,9.604,28.712c0,13.373-4.438,24.865-13.315,34.481c-8.879,9.615-22.012,14.424-39.402,14.424
			c-15.79,0-28.287-4.028-37.491-12.089C1033.186,1118.769,1027.166,1107.822,1024.329,1093.993z"/>
	</g>
</g>
<g>
	<circle fill="#295695" cx="355.087" cy="1042.369" r="219.255"/>
	<g>
		<path fill="#FFFFFF" d="M449.054,1009.35c4.376-8.454,7.609-15.368,9.698-20.739c2.089-5.372,3.134-9.848,3.134-13.428
			c0-2.984-0.35-5.371-1.045-7.161c-0.697-1.792-1.99-3.283-3.879-4.477c-1.891-1.194-4.476-2.037-7.758-2.536l2.238-9.848h63.41
			l-2.238,9.848c-3.282,0.596-6.192,1.791-8.728,3.58c-2.537,1.791-4.949,4.178-7.236,7.161c-2.29,2.985-4.528,6.393-6.714,10.222
			c-2.189,3.83-5.124,9.174-8.803,16.038l-85.491,157.853h-35.808l-0.298-96.084v-25.364c0-6.464,0.048-13.227,0.149-20.292h-1.939
			c-3.283,7.065-6.068,12.981-8.355,17.756l-62.366,123.984h-35.808l-2.983-158.748c-0.201-9.447-0.921-16.61-2.164-21.484
			c-1.245-4.872-2.909-8.379-4.998-10.52c-2.089-2.137-5.024-3.506-8.803-4.102l2.238-9.848h76.39l-2.238,9.848
			c-2.886,0.397-5.348,1.069-7.386,2.013c-2.04,0.947-3.729,2.34-5.073,4.179c-1.342,1.842-2.289,4.203-2.834,7.087
			c-0.548,2.886-0.872,5.521-0.97,7.907l-0.149,17.457l-0.597,56.099c-0.1,8.257-0.35,18.202-0.746,29.84l-0.746,17.755h1.94
			c2.287-5.073,4.749-10.344,7.385-15.815c2.635-5.469,7.435-15.167,14.398-29.094l53.861-107.274h32.675l0.149,97.725l0.149,13.279
			c0,13.928-0.35,27.653-1.044,41.18h1.939c4.674-9.747,13.078-26.607,25.214-50.578L449.054,1009.35z"/>
	</g>
</g>
<g>
	<circle fill="#0D7FC3" cx="2857.996" cy="1042.369" r="219.255"/>
	<g>
		<path fill="#FFFFFF" d="M2805.527,1149.354h-32.504l-4.516,15.293h-29.232l34.824-92.65h31.229l34.814,92.65h-29.98
			L2805.527,1149.354z M2799.588,1129.318l-10.227-33.306l-10.119,33.306H2799.588z"/>
		<path fill="#FFFFFF" d="M2833.002,1071.997h29.928l20.854,66.675l20.588-66.675h29.057l-34.402,92.65h-31.033L2833.002,1071.997z"
			/>
		<path fill="#FFFFFF" d="M2943.918,1071.997h28.693v92.65h-28.693V1071.997z"/>
	</g>
	<path fill="#FFFFFF" d="M2859.736,894.737c-37.607,0-68.094,30.486-68.094,68.095c0,37.605,30.486,68.093,68.094,68.093
		s68.094-30.487,68.094-68.093C2927.83,925.224,2897.344,894.737,2859.736,894.737z M2888.498,964.915l-43.734,25.249
		c-1.984,1.145-3.607,0.208-3.607-2.083v-50.5c0-2.291,1.623-3.228,3.607-2.082l43.734,25.25
		C2890.482,961.894,2890.482,963.769,2888.498,964.915z"/>
</g>
<g>
	<circle fill="#3A3A3A" cx="2232.269" cy="1042.369" r="219.255"/>
	<g>
		<path fill="#FFFFFF" d="M2123.477,1071.369h32.17l12.405,48.165l12.317-48.165h32.15v79.161h-20.032v-60.371l-15.438,60.371
			h-18.132l-15.408-60.371v60.371h-20.033V1071.369z"/>
		<path fill="#FFFFFF" d="M2228.018,1071.369h40.66c8.855,0,15.489,2.104,19.898,6.317c4.41,4.212,6.615,10.206,6.615,17.98
			c0,7.992-2.403,14.238-7.209,18.738c-4.805,4.5-12.141,6.75-22.005,6.75h-13.392v29.375h-24.568V1071.369z M2252.586,1105.116
			h5.994c4.716,0,8.028-0.818,9.936-2.455c1.909-1.639,2.862-3.735,2.862-6.291c0-2.484-0.828-4.59-2.483-6.319
			c-1.657-1.727-4.771-2.591-9.342-2.591h-6.967V1105.116z"/>
		<path fill="#FFFFFF" d="M2325.754,1094.263l-20.789-3.725c1.727-6.624,5.05-11.699,9.964-15.227
			c4.913-3.53,11.87-5.294,20.869-5.294c10.331,0,17.801,1.928,22.41,5.779c4.607,3.853,6.912,8.692,6.912,14.524
			c0,3.421-0.937,6.518-2.809,9.288c-1.872,2.772-4.699,5.202-8.479,7.289c3.061,0.757,5.402,1.64,7.021,2.647
			c2.627,1.62,4.671,3.752,6.13,6.397c1.458,2.646,2.188,5.806,2.188,9.478c0,4.608-1.207,9.027-3.619,13.257
			c-2.412,4.23-5.887,7.488-10.422,9.773s-10.493,3.429-17.874,3.429c-7.2,0-12.878-0.846-17.036-2.538
			c-4.157-1.691-7.578-4.166-10.26-7.425c-2.682-3.257-4.742-7.352-6.183-12.284l21.978-2.916c0.863,4.428,2.205,7.498,4.023,9.206
			c1.817,1.712,4.13,2.565,6.938,2.565c2.95,0,5.409-1.08,7.371-3.241c1.961-2.159,2.942-5.038,2.942-8.639
			c0-3.672-0.945-6.514-2.834-8.532c-1.891-2.015-4.455-3.022-7.696-3.022c-1.728,0-4.104,0.432-7.127,1.295l1.135-15.713
			c1.223,0.181,2.178,0.269,2.861,0.269c2.881,0,5.282-0.917,7.209-2.752c1.925-1.837,2.889-4.015,2.889-6.534
			c0-2.412-0.721-4.339-2.159-5.778c-1.441-1.44-3.421-2.16-5.94-2.16c-2.592,0-4.698,0.782-6.318,2.35
			C2327.43,1087.595,2326.33,1090.341,2325.754,1094.263z"/>
	</g>
	<path fill="#FFFFFF" d="M2272.721,930.462c-12.792-11.242-15.118-27.718-15.118-27.718c0-2.891-2.343-5.233-5.233-5.233
		s-5.233,2.343-5.233,5.233v101.207c-7.583-4.101-18.343-5.458-29.573-3.011c-19.284,4.2-32.645,18.028-29.844,30.885
		c2.802,12.855,20.704,19.871,39.986,15.669c19.15-4.173,32.457-17.839,29.897-30.618v-65.15c4.597,0.165,16.49,2.394,25.974,19.828
		c12.019,22.098-1.938,43.839-1.938,43.839C2322.891,971.196,2272.721,930.462,2272.721,930.462z"/>
</g>
<g>
	<circle fill="none" stroke="#ED1F24" stroke-width="14" stroke-miterlimit="10" cx="355.087" cy="1749.861" r="219.255"/>
	<path fill="#ED1F24" d="M498.314,1782.815c0,0,13.089-29.308-81.377-15.935c0,0-36.99-11.666-61.46-74.264
		c0,0,5.69-35.282,5.406-51.501c0,0-7.968,30.161-9.958,35.567c0,0-15.935-58.614-2.277-71.703c0,0,9.3,1.991,13.471,31.014
		c0,0,6.162-33.488-14.325-34.713c0,0-15.65,0.854-16.787,15.649c0,0-2.277,43.25,11.666,81.662c0,0-68.573,161.331-107.555,166.738
		c0,0-3.699-15.365,46.095-57.477c0,0-76.255,42.681-50.647,58.899c0,0,12.52,11.951,32.153-5.122c0,0,18.495-13.943,42.111-59.753
		c0,0,49.509-16.787,104.994-25.039c0,0,76.54,43.25,88.491,13.089v-3.414c0,0-6.261,19.348-67.436-12.235
		C430.878,1774.279,488.924,1767.45,498.314,1782.815z M308.244,1794.481c21.625-32.153,40.688-81.378,40.688-81.378
		c17.641,36.421,48.94,56.623,48.94,56.623C355.761,1777.408,308.244,1794.481,308.244,1794.481z"/>
</g>
<g>
	<circle fill="none" stroke="#0973BA" stroke-width="14" stroke-miterlimit="10" cx="980.815" cy="1749.861" r="219.256"/>
	<path fill="#0973BA" d="M953.788,1623.1c0,0,46.104-0.505,86.13,43.57c0,0-18.745-63.835-58.263-62.822
		C981.655,1603.848,958.348,1601.313,953.788,1623.1z"/>
	<path fill="#0973BA" d="M1044.985,1686.934c0,0-44.3-52.182-103.357-47.114c0,0-48.13-2.535-42.05,46.104
		c0,0,60.818-14.693,91.965,3.547c0,0-89.434,11.654-84.366,84.1c0,0-1.519,60.798,76.503,55.732c0,0,84.104-7.094,74.477-107.915
		c0,0,16.41,1.523,29.386,9.628C1087.543,1731.016,1101.037,1685.82,1044.985,1686.934z M996.853,1792.318
		c-44.078,13.681-43.065-23.811-43.065-23.811c3.04-48.135,62.316-49.651,62.316-49.651
		C1046.502,1771.543,996.853,1792.318,996.853,1792.318z"/>
	<path fill="#0973BA" d="M1006.479,1878.957c0,11.468-9.301,20.769-20.772,20.769c-11.474,0-20.772-9.301-20.772-20.769
		c0-11.476,9.298-20.776,20.772-20.776C997.178,1858.181,1006.479,1867.481,1006.479,1878.957z"/>
</g>
<g>
	<circle fill="none" stroke="#207F3F" stroke-width="14" stroke-miterlimit="10" cx="1606.542" cy="1749.861" r="219.255"/>
	<polygon fill="#207F3F" points="1664.548,1860.397 1728.457,1860.397 1641.928,1729.062 1716.25,1616.252 1652.34,1616.252 
		1609.973,1680.56 1567.607,1616.252 1503.697,1616.252 1578.018,1729.062 1491.49,1860.397 1534.575,1860.397 1555.398,1860.397 
		1616.076,1860.397 1616.076,1818.032 1583.311,1818.032 1609.973,1777.563 	"/>
</g>
<g>
	<circle fill="none" stroke="#FFCA1C" stroke-width="14" stroke-miterlimit="10" cx="2232.269" cy="1749.861" r="219.255"/>
	<rect x="2305.63" y="1580.154" fill="#FFCA1C" width="30.933" height="14.528"/>
	<rect x="2336.563" y="1594.683" fill="#FFCA1C" width="30.934" height="14.529"/>
	<rect x="2305.63" y="1609.212" fill="#FFCA1C" width="30.933" height="14.53"/>
	<rect x="2336.563" y="1623.742" fill="#FFCA1C" width="30.934" height="14.528"/>
	<path fill="#FFCA1C" d="M2336.7,1638.271c-12.399,0-22.45,10.051-22.45,22.45v35.729c0,12.399,10.051,22.451,22.45,22.451
		c12.4,0,22.451-10.052,22.451-22.451v-35.729C2359.151,1648.321,2349.101,1638.271,2336.7,1638.271z M2344.157,1706.229h-14.913
		v-32.038h14.913V1706.229z"/>
	<g>
		<g>
			<path fill="#FFCA1C" d="M2111.151,1750.89h90.576v20.7l-58.143,60.62h60.261v22.256h-98.276v-21.479l57.534-59.983h-51.952
				V1750.89z"/>
			<path fill="#FFCA1C" d="M2219.532,1750.89h32.076v103.576h-32.076V1750.89z"/>
			<path fill="#FFCA1C" d="M2274.429,1750.89h53.202c11.585,0,20.265,2.756,26.034,8.267s8.655,13.354,8.655,23.526
				c0,10.458-3.144,18.63-9.433,24.518c-6.287,5.888-15.885,8.831-28.79,8.831h-17.522v38.435h-32.146V1750.89z M2306.575,1795.048
				h7.843c6.17,0,10.503-1.071,13-3.215c2.496-2.143,3.744-4.886,3.744-8.23c0-3.251-1.084-6.006-3.25-8.268
				c-2.166-2.26-6.241-3.391-12.223-3.391h-9.114V1795.048z"/>
		</g>
	</g>
</g>
<g>
	<circle fill="none" stroke="#D14527" stroke-width="14" stroke-miterlimit="10" cx="2857.996" cy="1749.861" r="219.255"/>
	<g>
		<g>
			<path fill="#D14527" d="M2786.109,1642.169h113.186c24.65,0,43.112,5.862,55.389,17.587
				c12.274,11.723,18.413,28.408,18.413,50.052c0,22.247-6.688,39.634-20.067,52.159c-13.377,12.527-33.796,18.788-61.25,18.788
				h-37.278v81.771h-68.392V1642.169z M2854.501,1736.112h16.685c13.127,0,22.346-2.276,27.658-6.839
				c5.31-4.558,7.966-10.395,7.966-17.511c0-6.914-2.307-12.776-6.915-17.586c-4.609-4.81-13.278-7.216-26.004-7.216h-19.39
				V1736.112z"/>
		</g>
	</g>
</g>
<g>
	<circle fill="none" stroke="#F26822" stroke-width="14" stroke-miterlimit="10" cx="1606.542" cy="2400.927" r="219.255"/>
	<g>
		<g>
			<path fill="#F26822" d="M1590.032,2450.913h-58.273l-8.098,27.421h-52.408l62.434-166.11h55.988l62.418,166.11h-53.752
				L1590.032,2450.913z M1579.384,2414.994l-18.334-59.712l-18.145,59.712H1579.384z"/>
			<path fill="#F26822" d="M1667.05,2312.224h46.117v31.386h-46.117V2312.224z M1667.05,2358h46.117v120.334h-46.117V2358z"/>
		</g>
	</g>
</g>
<g>
	<circle fill="none" stroke="#125AA9" stroke-width="14" stroke-miterlimit="10" cx="980.815" cy="2400.927" r="219.256"/>
	<g>
		<g>
			<path fill="#125AA9" d="M886.259,2494.175v-201.392h51.844c19.646,0,32.452,1.009,38.419,3.022
				c9.169,3.022,16.844,9.594,23.03,19.712c6.184,10.121,9.278,23.196,9.278,39.221c0,12.365-1.784,22.76-5.349,31.186
				c-3.565,8.427-8.096,15.042-13.588,19.851c-5.496,4.809-11.079,7.991-16.754,9.547c-7.714,1.923-18.882,2.886-33.507,2.886
				h-21.066v75.968H886.259z M918.566,2326.852V2384h17.682c12.732,0,21.246-1.052,25.54-3.16c4.292-2.105,7.657-5.402,10.096-9.891
				c2.437-4.486,3.657-9.707,3.657-15.661c0-7.326-1.711-13.37-5.131-18.133c-3.42-4.762-7.749-7.738-12.988-8.93
				c-3.857-0.914-11.606-1.374-23.248-1.374H918.566z"/>
			<path fill="#125AA9" d="M1024.329,2452.551l30.778-5.907c1.31,7.51,3.965,13.211,7.968,17.104
				c4.001,3.893,9.605,5.837,16.808,5.837c7.93,0,13.898-1.83,17.901-5.493c2.69-2.563,4.038-5.999,4.038-10.304
				c0-2.93-0.729-5.358-2.184-7.281c-1.527-1.831-4.949-3.524-10.26-5.083c-24.74-6.868-40.421-13.141-47.042-18.819
				c-9.168-7.877-13.751-18.821-13.751-32.834c0-12.639,3.964-23.262,11.896-31.87c7.93-8.607,20.228-12.914,36.891-12.914
				c15.862,0,27.649,3.253,35.363,9.753c7.713,6.504,13.024,16.121,15.936,28.85l-28.923,6.73c-1.239-5.676-3.586-10.027-7.04-13.05
				c-3.457-3.021-8.389-4.533-14.791-4.533c-8.076,0-13.86,1.422-17.354,4.258c-2.33,2.017-3.493,4.627-3.493,7.831
				c0,2.747,1.019,5.083,3.056,7.006c2.765,2.565,12.315,6.183,28.651,10.854c16.333,4.67,27.74,10.395,34.217,17.171
				c6.403,6.868,9.604,16.44,9.604,28.712c0,13.373-4.438,24.865-13.315,34.481c-8.879,9.615-22.012,14.424-39.402,14.424
				c-15.79,0-28.287-4.028-37.491-12.089C1033.186,2477.326,1027.166,2466.38,1024.329,2452.551z"/>
		</g>
	</g>
</g>
<g>
	<circle fill="none" stroke="#295695" stroke-width="14" stroke-miterlimit="10" cx="355.087" cy="2400.927" r="219.255"/>
	<g>
		<g>
			<path fill="#295695" d="M449.054,2367.907c4.376-8.454,7.609-15.368,9.698-20.739c2.089-5.372,3.134-9.848,3.134-13.427
				c0-2.985-0.35-5.372-1.045-7.162c-0.697-1.792-1.99-3.283-3.879-4.477c-1.891-1.194-4.476-2.037-7.758-2.536l2.238-9.848h63.41
				l-2.238,9.848c-3.282,0.596-6.192,1.791-8.728,3.58c-2.537,1.791-4.949,4.178-7.236,7.161c-2.29,2.985-4.528,6.393-6.714,10.222
				c-2.189,3.83-5.124,9.174-8.803,16.038l-85.491,157.853h-35.808l-0.298-96.084v-25.364c0-6.464,0.048-13.227,0.149-20.292h-1.939
				c-3.283,7.065-6.068,12.981-8.355,17.756l-62.366,123.984h-35.808l-2.983-158.748c-0.201-9.447-0.921-16.61-2.164-21.484
				c-1.245-4.872-2.909-8.379-4.998-10.52c-2.089-2.136-5.024-3.506-8.803-4.102l2.238-9.848h76.39l-2.238,9.848
				c-2.886,0.397-5.348,1.069-7.386,2.013c-2.04,0.947-3.729,2.34-5.073,4.179c-1.342,1.842-2.289,4.203-2.834,7.087
				c-0.548,2.886-0.872,5.521-0.97,7.907l-0.149,17.457l-0.597,56.099c-0.1,8.257-0.35,18.202-0.746,29.84l-0.746,17.755h1.94
				c2.287-5.073,4.749-10.344,7.385-15.815c2.635-5.469,7.435-15.167,14.398-29.094l53.861-107.274h32.675l0.149,97.725
				l0.149,13.279c0,13.928-0.35,27.653-1.044,41.18h1.939c4.674-9.747,13.078-26.607,25.214-50.578L449.054,2367.907z"/>
		</g>
	</g>
</g>
<g>
	<circle fill="none" stroke="#0D7FC3" stroke-width="14" stroke-miterlimit="10" cx="2857.996" cy="2400.927" r="219.255"/>
	<g>
		<g>
			<path fill="#0D7FC3" d="M2805.527,2507.912h-32.504l-4.516,15.293h-29.232l34.824-92.65h31.229l34.814,92.65h-29.98
				L2805.527,2507.912z M2799.588,2487.876l-10.227-33.306l-10.119,33.306H2799.588z"/>
			<path fill="#0D7FC3" d="M2833.002,2430.555h29.928l20.854,66.675l20.588-66.675h29.057l-34.402,92.65h-31.033L2833.002,2430.555z
				"/>
			<path fill="#0D7FC3" d="M2943.918,2430.555h28.693v92.65h-28.693V2430.555z"/>
		</g>
	</g>
	<path fill="#0D7FC3" d="M2859.736,2253.295c-37.607,0-68.094,30.487-68.094,68.095c0,37.605,30.486,68.093,68.094,68.093
		s68.094-30.487,68.094-68.093C2927.83,2283.782,2897.344,2253.295,2859.736,2253.295z M2888.498,2323.473l-43.734,25.249
		c-1.984,1.145-3.607,0.208-3.607-2.083v-50.5c0-2.291,1.623-3.228,3.607-2.082l43.734,25.25
		C2890.482,2320.451,2890.482,2322.326,2888.498,2323.473z"/>
</g>
<g>
	<circle fill="none" stroke="#3A3A3A" stroke-width="14" stroke-miterlimit="10" cx="2232.269" cy="2400.927" r="219.255"/>
	<g>
		<g>
			<path fill="#3A3A3A" d="M2123.477,2429.927h32.17l12.405,48.165l12.317-48.165h32.15v79.161h-20.032v-60.371l-15.438,60.371
				h-18.132l-15.408-60.371v60.371h-20.033V2429.927z"/>
			<path fill="#3A3A3A" d="M2228.018,2429.927h40.66c8.855,0,15.489,2.105,19.898,6.317c4.41,4.212,6.615,10.206,6.615,17.98
				c0,7.992-2.403,14.238-7.209,18.738c-4.805,4.5-12.141,6.75-22.005,6.75h-13.392v29.375h-24.568V2429.927z M2252.586,2463.674
				h5.994c4.716,0,8.028-0.818,9.936-2.455c1.909-1.639,2.862-3.735,2.862-6.291c0-2.484-0.828-4.59-2.483-6.319
				c-1.657-1.727-4.771-2.591-9.342-2.591h-6.967V2463.674z"/>
			<path fill="#3A3A3A" d="M2325.754,2452.82l-20.789-3.725c1.727-6.624,5.05-11.699,9.964-15.227
				c4.913-3.53,11.87-5.294,20.869-5.294c10.331,0,17.801,1.928,22.41,5.779c4.607,3.853,6.912,8.692,6.912,14.524
				c0,3.421-0.937,6.518-2.809,9.288c-1.872,2.772-4.699,5.202-8.479,7.289c3.061,0.757,5.402,1.64,7.021,2.647
				c2.627,1.62,4.671,3.752,6.13,6.397c1.458,2.646,2.188,5.806,2.188,9.478c0,4.608-1.207,9.027-3.619,13.257
				c-2.412,4.23-5.887,7.488-10.422,9.773s-10.493,3.429-17.874,3.429c-7.2,0-12.878-0.846-17.036-2.538
				c-4.157-1.691-7.578-4.166-10.26-7.425c-2.682-3.257-4.742-7.352-6.183-12.284l21.978-2.916c0.863,4.428,2.205,7.498,4.023,9.206
				c1.817,1.712,4.13,2.565,6.938,2.565c2.95,0,5.409-1.08,7.371-3.241c1.961-2.159,2.942-5.038,2.942-8.639
				c0-3.672-0.945-6.514-2.834-8.532c-1.891-2.015-4.455-3.022-7.696-3.022c-1.728,0-4.104,0.432-7.127,1.296l1.135-15.714
				c1.223,0.181,2.178,0.269,2.861,0.269c2.881,0,5.282-0.917,7.209-2.752c1.925-1.837,2.889-4.015,2.889-6.534
				c0-2.412-0.721-4.339-2.159-5.778c-1.441-1.44-3.421-2.16-5.94-2.16c-2.592,0-4.698,0.782-6.318,2.35
				C2327.43,2446.152,2326.33,2448.898,2325.754,2452.82z"/>
		</g>
	</g>
	<path fill="#3A3A3A" d="M2272.721,2289.02c-12.792-11.242-15.118-27.718-15.118-27.718c0-2.891-2.343-5.233-5.233-5.233
		s-5.233,2.343-5.233,5.233v101.207c-7.583-4.101-18.343-5.458-29.573-3.011c-19.284,4.2-32.645,18.028-29.844,30.885
		c2.802,12.855,20.704,19.871,39.986,15.669c19.15-4.173,32.457-17.839,29.897-30.618v-65.15c4.597,0.165,16.49,2.394,25.974,19.828
		c12.019,22.098-1.938,43.839-1.938,43.839C2322.891,2329.754,2272.721,2289.02,2272.721,2289.02z"/>
</g>
<g>
	<circle fill="#777677" cx="355.087" cy="3079.304" r="219.255"/>
	<path fill="#FFFFFF" d="M498.314,3112.258c0,0,13.089-29.308-81.377-15.935c0,0-36.99-11.666-61.46-74.264
		c0,0,5.69-35.282,5.406-51.501c0,0-7.968,30.161-9.958,35.567c0,0-15.935-58.614-2.277-71.703c0,0,9.3,1.991,13.471,31.014
		c0,0,6.162-33.488-14.325-34.713c0,0-15.65,0.854-16.787,15.649c0,0-2.277,43.25,11.666,81.662c0,0-68.573,161.331-107.555,166.738
		c0,0-3.699-15.365,46.095-57.477c0,0-76.255,42.681-50.647,58.899c0,0,12.52,11.951,32.153-5.122c0,0,18.495-13.943,42.111-59.753
		c0,0,49.509-16.787,104.994-25.039c0,0,76.54,43.25,88.491,13.089v-3.414c0,0-6.261,19.348-67.436-12.235
		C430.878,3103.722,488.924,3096.893,498.314,3112.258z M308.244,3123.924c21.625-32.153,40.688-81.378,40.688-81.378
		c17.641,36.421,48.94,56.623,48.94,56.623C355.761,3106.851,308.244,3123.924,308.244,3123.924z"/>
</g>
<g>
	<circle fill="#777677" cx="980.815" cy="3079.304" r="219.256"/>
	<path fill="#FFFFFF" d="M953.788,2952.542c0,0,46.104-0.505,86.13,43.57c0,0-18.745-63.835-58.263-62.822
		C981.655,2933.29,958.348,2930.756,953.788,2952.542z"/>
	<path fill="#FFFFFF" d="M1044.985,3016.376c0,0-44.3-52.182-103.357-47.114c0,0-48.13-2.535-42.05,46.104
		c0,0,60.818-14.693,91.965,3.547c0,0-89.434,11.654-84.366,84.1c0,0-1.519,60.798,76.503,55.732c0,0,84.104-7.094,74.477-107.915
		c0,0,16.41,1.523,29.386,9.628C1087.543,3060.458,1101.037,3015.263,1044.985,3016.376z M996.853,3121.761
		c-44.078,13.681-43.065-23.811-43.065-23.811c3.04-48.135,62.316-49.651,62.316-49.651
		C1046.502,3100.985,996.853,3121.761,996.853,3121.761z"/>
	<path fill="#FFFFFF" d="M1006.479,3208.399c0,11.468-9.301,20.769-20.772,20.769c-11.474,0-20.772-9.301-20.772-20.769
		c0-11.476,9.298-20.776,20.772-20.776C997.178,3187.623,1006.479,3196.924,1006.479,3208.399z"/>
</g>
<g>
	<circle fill="#777677" cx="1606.542" cy="3079.304" r="219.255"/>
	<polygon fill="#FFFFFF" points="1664.548,3189.84 1728.457,3189.84 1641.928,3058.504 1716.25,2945.694 1652.34,2945.694 
		1609.973,3010.002 1567.607,2945.694 1503.697,2945.694 1578.018,3058.504 1491.49,3189.84 1534.575,3189.84 1555.398,3189.84 
		1616.076,3189.84 1616.076,3147.475 1583.311,3147.475 1609.973,3107.006 	"/>
</g>
<g>
	<circle fill="#777677" cx="2232.269" cy="3079.304" r="219.255"/>
	<rect x="2305.63" y="2909.597" fill="#FFFFFF" width="30.933" height="14.528"/>
	<rect x="2336.563" y="2924.125" fill="#FFFFFF" width="30.934" height="14.529"/>
	<rect x="2305.63" y="2938.654" fill="#FFFFFF" width="30.933" height="14.53"/>
	<rect x="2336.563" y="2953.185" fill="#FFFFFF" width="30.934" height="14.528"/>
	<path fill="#FFFFFF" d="M2336.7,2967.713c-12.399,0-22.45,10.051-22.45,22.45v35.729c0,12.399,10.051,22.451,22.45,22.451
		c12.4,0,22.451-10.052,22.451-22.451v-35.729C2359.151,2977.764,2349.101,2967.713,2336.7,2967.713z M2344.157,3035.671h-14.913
		v-32.038h14.913V3035.671z"/>
	<g>
		<path fill="#FFFFFF" d="M2111.151,3080.332h90.576v20.7l-58.143,60.62h60.261v22.256h-98.276v-21.479l57.534-59.983h-51.952
			V3080.332z"/>
		<path fill="#FFFFFF" d="M2219.532,3080.332h32.076v103.576h-32.076V3080.332z"/>
		<path fill="#FFFFFF" d="M2274.429,3080.332h53.202c11.585,0,20.265,2.756,26.034,8.267s8.655,13.354,8.655,23.526
			c0,10.458-3.144,18.63-9.433,24.518c-6.287,5.888-15.885,8.831-28.79,8.831h-17.522v38.435h-32.146V3080.332z M2306.575,3124.49
			h7.843c6.17,0,10.503-1.071,13-3.215c2.496-2.143,3.744-4.886,3.744-8.23c0-3.251-1.084-6.006-3.25-8.268
			c-2.166-2.26-6.241-3.391-12.223-3.391h-9.114V3124.49z"/>
	</g>
</g>
<g>
	<circle fill="#777677" cx="2857.996" cy="3079.304" r="219.255"/>
	<g>
		<path fill="#FFFFFF" d="M2786.109,2971.611h113.186c24.65,0,43.112,5.862,55.389,17.587
			c12.274,11.723,18.413,28.408,18.413,50.052c0,22.247-6.688,39.634-20.067,52.159c-13.377,12.527-33.796,18.788-61.25,18.788
			h-37.278v81.771h-68.392V2971.611z M2854.501,3065.555h16.685c13.127,0,22.346-2.276,27.658-6.839
			c5.31-4.558,7.966-10.395,7.966-17.511c0-6.914-2.307-12.776-6.915-17.586c-4.609-4.81-13.278-7.216-26.004-7.216h-19.39V3065.555
			z"/>
	</g>
</g>
<g>
	<circle fill="#777677" cx="1606.542" cy="3730.369" r="219.255"/>
	<g>
		<path fill="#FFFFFF" d="M1590.032,3780.355h-58.273l-8.098,27.421h-52.408l62.434-166.11h55.988l62.418,166.11h-53.752
			L1590.032,3780.355z M1579.384,3744.437l-18.334-59.713l-18.145,59.713H1579.384z"/>
		<path fill="#FFFFFF" d="M1667.05,3641.666h46.117v31.386h-46.117V3641.666z M1667.05,3687.442h46.117v120.334h-46.117V3687.442z"
			/>
	</g>
</g>
<g>
	<circle fill="#777677" cx="980.815" cy="3730.369" r="219.256"/>
	<g>
		<path fill="#FFFFFF" d="M886.259,3823.617v-201.392h51.844c19.646,0,32.452,1.009,38.419,3.022
			c9.169,3.022,16.844,9.594,23.03,19.712c6.184,10.121,9.278,23.196,9.278,39.221c0,12.365-1.784,22.76-5.349,31.186
			c-3.565,8.427-8.096,15.042-13.588,19.851c-5.496,4.809-11.079,7.991-16.754,9.547c-7.714,1.923-18.882,2.886-33.507,2.886
			h-21.066v75.968H886.259z M918.566,3656.294v57.148h17.682c12.732,0,21.246-1.052,25.54-3.16
			c4.292-2.105,7.657-5.402,10.096-9.891c2.437-4.486,3.657-9.707,3.657-15.661c0-7.326-1.711-13.37-5.131-18.133
			c-3.42-4.762-7.749-7.738-12.988-8.93c-3.857-0.914-11.606-1.374-23.248-1.374H918.566z"/>
		<path fill="#FFFFFF" d="M1024.329,3781.993l30.778-5.907c1.31,7.51,3.965,13.211,7.968,17.104
			c4.001,3.893,9.605,5.837,16.808,5.837c7.93,0,13.898-1.83,17.901-5.493c2.69-2.563,4.038-5.999,4.038-10.304
			c0-2.93-0.729-5.358-2.184-7.281c-1.527-1.831-4.949-3.524-10.26-5.083c-24.74-6.868-40.421-13.142-47.042-18.819
			c-9.168-7.877-13.751-18.821-13.751-32.834c0-12.639,3.964-23.262,11.896-31.87c7.93-8.607,20.228-12.914,36.891-12.914
			c15.862,0,27.649,3.253,35.363,9.753c7.713,6.504,13.024,16.121,15.936,28.85l-28.923,6.73c-1.239-5.676-3.586-10.027-7.04-13.05
			c-3.457-3.021-8.389-4.533-14.791-4.533c-8.076,0-13.86,1.421-17.354,4.258c-2.33,2.017-3.493,4.627-3.493,7.831
			c0,2.747,1.019,5.083,3.056,7.006c2.765,2.565,12.315,6.183,28.651,10.854c16.333,4.67,27.74,10.395,34.217,17.171
			c6.403,6.868,9.604,16.44,9.604,28.712c0,13.373-4.438,24.865-13.315,34.481c-8.879,9.615-22.012,14.424-39.402,14.424
			c-15.79,0-28.287-4.028-37.491-12.089C1033.186,3806.769,1027.166,3795.822,1024.329,3781.993z"/>
	</g>
</g>
<g>
	<circle fill="#777677" cx="355.087" cy="3730.369" r="219.255"/>
	<g>
		<path fill="#FFFFFF" d="M449.054,3697.35c4.376-8.454,7.609-15.368,9.698-20.739c2.089-5.372,3.134-9.848,3.134-13.428
			c0-2.984-0.35-5.371-1.045-7.161c-0.697-1.792-1.99-3.283-3.879-4.477c-1.891-1.194-4.476-2.037-7.758-2.536l2.238-9.848h63.41
			l-2.238,9.848c-3.282,0.596-6.192,1.791-8.728,3.58c-2.537,1.791-4.949,4.178-7.236,7.161c-2.29,2.985-4.528,6.393-6.714,10.222
			c-2.189,3.83-5.124,9.174-8.803,16.038l-85.491,157.853h-35.808l-0.298-96.084v-25.364c0-6.464,0.048-13.227,0.149-20.292h-1.939
			c-3.283,7.065-6.068,12.981-8.355,17.756l-62.366,123.984h-35.808l-2.983-158.748c-0.201-9.447-0.921-16.61-2.164-21.484
			c-1.245-4.872-2.909-8.379-4.998-10.52c-2.089-2.137-5.024-3.506-8.803-4.102l2.238-9.848h76.39l-2.238,9.848
			c-2.886,0.397-5.348,1.069-7.386,2.013c-2.04,0.947-3.729,2.34-5.073,4.179c-1.342,1.842-2.289,4.203-2.834,7.087
			c-0.548,2.886-0.872,5.521-0.97,7.907l-0.149,17.457l-0.597,56.099c-0.1,8.257-0.35,18.202-0.746,29.84l-0.746,17.755h1.94
			c2.287-5.073,4.749-10.344,7.385-15.815c2.635-5.469,7.435-15.167,14.398-29.094l53.861-107.274h32.675l0.149,97.725l0.149,13.279
			c0,13.928-0.35,27.653-1.044,41.18h1.939c4.674-9.747,13.078-26.607,25.214-50.578L449.054,3697.35z"/>
	</g>
</g>
<g>
	<circle fill="#777677" cx="2857.996" cy="3730.369" r="219.255"/>
	<g>
		<path fill="#FFFFFF" d="M2805.527,3837.354h-32.504l-4.516,15.293h-29.232l34.824-92.65h31.229l34.814,92.65h-29.98
			L2805.527,3837.354z M2799.588,3817.318l-10.227-33.306l-10.119,33.306H2799.588z"/>
		<path fill="#FFFFFF" d="M2833.002,3759.997h29.928l20.854,66.675l20.588-66.675h29.057l-34.402,92.65h-31.033L2833.002,3759.997z"
			/>
		<path fill="#FFFFFF" d="M2943.918,3759.997h28.693v92.65h-28.693V3759.997z"/>
	</g>
	<path fill="#FFFFFF" d="M2859.736,3582.737c-37.607,0-68.094,30.486-68.094,68.095c0,37.605,30.486,68.093,68.094,68.093
		s68.094-30.487,68.094-68.093C2927.83,3613.224,2897.344,3582.737,2859.736,3582.737z M2888.498,3652.915l-43.734,25.249
		c-1.984,1.145-3.607,0.208-3.607-2.083v-50.5c0-2.291,1.623-3.228,3.607-2.082l43.734,25.25
		C2890.482,3649.894,2890.482,3651.769,2888.498,3652.915z"/>
</g>
<g>
	<circle fill="#777677" cx="2232.269" cy="3730.369" r="219.255"/>
	<g>
		<path fill="#FFFFFF" d="M2123.477,3759.369h32.17l12.405,48.165l12.317-48.165h32.15v79.161h-20.032v-60.371l-15.438,60.371
			h-18.132l-15.408-60.371v60.371h-20.033V3759.369z"/>
		<path fill="#FFFFFF" d="M2228.018,3759.369h40.66c8.855,0,15.489,2.104,19.898,6.317c4.41,4.212,6.615,10.206,6.615,17.98
			c0,7.992-2.403,14.238-7.209,18.738c-4.805,4.5-12.141,6.75-22.005,6.75h-13.392v29.375h-24.568V3759.369z M2252.586,3793.116
			h5.994c4.716,0,8.028-0.818,9.936-2.455c1.909-1.639,2.862-3.735,2.862-6.291c0-2.484-0.828-4.59-2.483-6.319
			c-1.657-1.727-4.771-2.591-9.342-2.591h-6.967V3793.116z"/>
		<path fill="#FFFFFF" d="M2325.754,3782.263l-20.789-3.725c1.727-6.624,5.05-11.699,9.964-15.227
			c4.913-3.53,11.87-5.294,20.869-5.294c10.331,0,17.801,1.928,22.41,5.779c4.607,3.853,6.912,8.692,6.912,14.524
			c0,3.421-0.937,6.518-2.809,9.288c-1.872,2.772-4.699,5.202-8.479,7.289c3.061,0.757,5.402,1.64,7.021,2.647
			c2.627,1.62,4.671,3.752,6.13,6.397c1.458,2.646,2.188,5.806,2.188,9.478c0,4.608-1.207,9.027-3.619,13.257
			c-2.412,4.23-5.887,7.488-10.422,9.773s-10.493,3.429-17.874,3.429c-7.2,0-12.878-0.846-17.036-2.538
			c-4.157-1.691-7.578-4.166-10.26-7.425c-2.682-3.257-4.742-7.352-6.183-12.284l21.978-2.916c0.863,4.428,2.205,7.498,4.023,9.206
			c1.817,1.712,4.13,2.565,6.938,2.565c2.95,0,5.409-1.08,7.371-3.241c1.961-2.159,2.942-5.038,2.942-8.639
			c0-3.672-0.945-6.514-2.834-8.532c-1.891-2.015-4.455-3.022-7.696-3.022c-1.728,0-4.104,0.432-7.127,1.295l1.135-15.713
			c1.223,0.181,2.178,0.269,2.861,0.269c2.881,0,5.282-0.917,7.209-2.752c1.925-1.837,2.889-4.015,2.889-6.534
			c0-2.412-0.721-4.339-2.159-5.778c-1.441-1.44-3.421-2.16-5.94-2.16c-2.592,0-4.698,0.782-6.318,2.35
			C2327.43,3775.595,2326.33,3778.341,2325.754,3782.263z"/>
	</g>
	<path fill="#FFFFFF" d="M2272.721,3618.462c-12.792-11.242-15.118-27.718-15.118-27.718c0-2.891-2.343-5.233-5.233-5.233
		s-5.233,2.343-5.233,5.233v101.207c-7.583-4.101-18.343-5.458-29.573-3.011c-19.284,4.2-32.645,18.028-29.844,30.885
		c2.802,12.855,20.704,19.871,39.986,15.669c19.15-4.173,32.457-17.839,29.897-30.618v-65.15c4.597,0.165,16.49,2.394,25.974,19.828
		c12.019,22.098-1.938,43.839-1.938,43.839C2322.891,3659.196,2272.721,3618.462,2272.721,3618.462z"/>
</g>
<g>
	<circle fill="none" stroke="#777677" stroke-width="14" stroke-miterlimit="10" cx="355.087" cy="4437.861" r="219.255"/>
	<path fill="#777677" d="M498.314,4470.815c0,0,13.089-29.308-81.377-15.935c0,0-36.99-11.666-61.46-74.264
		c0,0,5.69-35.281,5.406-51.501c0,0-7.968,30.161-9.958,35.567c0,0-15.935-58.614-2.277-71.703c0,0,9.3,1.991,13.471,31.014
		c0,0,6.162-33.488-14.325-34.713c0,0-15.65,0.854-16.787,15.649c0,0-2.277,43.25,11.666,81.662c0,0-68.573,161.331-107.555,166.738
		c0,0-3.699-15.365,46.095-57.477c0,0-76.255,42.681-50.647,58.899c0,0,12.52,11.951,32.153-5.122c0,0,18.495-13.943,42.111-59.753
		c0,0,49.509-16.787,104.994-25.039c0,0,76.54,43.25,88.491,13.089v-3.414c0,0-6.261,19.348-67.436-12.235
		C430.878,4462.279,488.924,4455.45,498.314,4470.815z M308.244,4482.481c21.625-32.153,40.688-81.378,40.688-81.378
		c17.641,36.421,48.94,56.623,48.94,56.623C355.761,4465.408,308.244,4482.481,308.244,4482.481z"/>
</g>
<g>
	<circle fill="none" stroke="#777677" stroke-width="14" stroke-miterlimit="10" cx="980.815" cy="4437.861" r="219.256"/>
	<path fill="#777677" d="M953.788,4311.1c0,0,46.104-0.505,86.13,43.57c0,0-18.745-63.835-58.263-62.822
		C981.655,4291.848,958.348,4289.313,953.788,4311.1z"/>
	<path fill="#777677" d="M1044.985,4374.934c0,0-44.3-52.182-103.357-47.114c0,0-48.13-2.535-42.05,46.104
		c0,0,60.818-14.693,91.965,3.547c0,0-89.434,11.654-84.366,84.1c0,0-1.519,60.798,76.503,55.732c0,0,84.104-7.094,74.477-107.915
		c0,0,16.41,1.523,29.386,9.628C1087.543,4419.016,1101.037,4373.82,1044.985,4374.934z M996.853,4480.318
		c-44.078,13.681-43.065-23.811-43.065-23.811c3.04-48.135,62.316-49.651,62.316-49.651
		C1046.502,4459.543,996.853,4480.318,996.853,4480.318z"/>
	<path fill="#777677" d="M1006.479,4566.957c0,11.468-9.301,20.769-20.772,20.769c-11.474,0-20.772-9.301-20.772-20.769
		c0-11.476,9.298-20.776,20.772-20.776C997.178,4546.181,1006.479,4555.481,1006.479,4566.957z"/>
</g>
<g>
	<circle fill="none" stroke="#777677" stroke-width="14" stroke-miterlimit="10" cx="1606.542" cy="4437.861" r="219.255"/>
	<polygon fill="#777677" points="1664.548,4548.397 1728.457,4548.397 1641.928,4417.062 1716.25,4304.252 1652.34,4304.252 
		1609.973,4368.56 1567.607,4304.252 1503.697,4304.252 1578.018,4417.062 1491.49,4548.397 1534.575,4548.397 1555.398,4548.397 
		1616.076,4548.397 1616.076,4506.032 1583.311,4506.032 1609.973,4465.563 	"/>
</g>
<g>
	<circle fill="none" stroke="#777677" stroke-width="14" stroke-miterlimit="10" cx="2232.269" cy="4437.861" r="219.255"/>
	<rect x="2305.63" y="4268.154" fill="#777677" width="30.933" height="14.528"/>
	<rect x="2336.563" y="4282.683" fill="#777677" width="30.934" height="14.529"/>
	<rect x="2305.63" y="4297.212" fill="#777677" width="30.933" height="14.53"/>
	<rect x="2336.563" y="4311.742" fill="#777677" width="30.934" height="14.528"/>
	<path fill="#777677" d="M2336.7,4326.271c-12.399,0-22.45,10.051-22.45,22.45v35.729c0,12.399,10.051,22.451,22.45,22.451
		c12.4,0,22.451-10.052,22.451-22.451v-35.729C2359.151,4336.321,2349.101,4326.271,2336.7,4326.271z M2344.157,4394.229h-14.913
		v-32.038h14.913V4394.229z"/>
	<g>
		<g>
			<path fill="#777677" d="M2111.151,4438.89h90.576v20.7l-58.143,60.62h60.261v22.256h-98.276v-21.479l57.534-59.983h-51.952
				V4438.89z"/>
			<path fill="#777677" d="M2219.532,4438.89h32.076v103.576h-32.076V4438.89z"/>
			<path fill="#777677" d="M2274.429,4438.89h53.202c11.585,0,20.265,2.756,26.034,8.267s8.655,13.354,8.655,23.526
				c0,10.458-3.144,18.63-9.433,24.518c-6.287,5.888-15.885,8.831-28.79,8.831h-17.522v38.435h-32.146V4438.89z M2306.575,4483.048
				h7.843c6.17,0,10.503-1.071,13-3.215c2.496-2.143,3.744-4.886,3.744-8.23c0-3.251-1.084-6.006-3.25-8.267
				s-6.241-3.392-12.223-3.392h-9.114V4483.048z"/>
		</g>
	</g>
</g>
<g>
	<circle fill="none" stroke="#777677" stroke-width="14" stroke-miterlimit="10" cx="2857.996" cy="4437.861" r="219.255"/>
	<g>
		<g>
			<path fill="#777677" d="M2786.109,4330.169h113.186c24.65,0,43.112,5.862,55.389,17.587
				c12.274,11.723,18.413,28.408,18.413,50.052c0,22.247-6.688,39.634-20.067,52.159c-13.377,12.527-33.796,18.788-61.25,18.788
				h-37.278v81.771h-68.392V4330.169z M2854.501,4424.112h16.685c13.127,0,22.346-2.276,27.658-6.839
				c5.31-4.558,7.966-10.395,7.966-17.511c0-6.914-2.307-12.776-6.915-17.586c-4.609-4.81-13.278-7.216-26.004-7.216h-19.39
				V4424.112z"/>
		</g>
	</g>
</g>
<g>
	<circle fill="none" stroke="#777677" stroke-width="14" stroke-miterlimit="10" cx="1606.542" cy="5088.927" r="219.255"/>
	<g>
		<g>
			<path fill="#777677" d="M1590.032,5138.913h-58.273l-8.098,27.421h-52.408l62.434-166.11h55.988l62.418,166.11h-53.752
				L1590.032,5138.913z M1579.384,5102.994l-18.334-59.712l-18.145,59.712H1579.384z"/>
			<path fill="#777677" d="M1667.05,5000.224h46.117v31.386h-46.117V5000.224z M1667.05,5046h46.117v120.334h-46.117V5046z"/>
		</g>
	</g>
</g>
<g>
	<circle fill="none" stroke="#777677" stroke-width="14" stroke-miterlimit="10" cx="980.815" cy="5088.927" r="219.256"/>
	<g>
		<g>
			<path fill="#777677" d="M886.259,5182.175v-201.392h51.844c19.646,0,32.452,1.01,38.419,3.022
				c9.169,3.022,16.844,9.594,23.03,19.712c6.184,10.121,9.278,23.196,9.278,39.221c0,12.365-1.784,22.76-5.349,31.186
				c-3.565,8.427-8.096,15.042-13.588,19.851c-5.496,4.809-11.079,7.991-16.754,9.547c-7.714,1.923-18.882,2.886-33.507,2.886
				h-21.066v75.968H886.259z M918.566,5014.852V5072h17.682c12.732,0,21.246-1.052,25.54-3.16c4.292-2.105,7.657-5.402,10.096-9.891
				c2.437-4.486,3.657-9.707,3.657-15.661c0-7.326-1.711-13.37-5.131-18.133c-3.42-4.762-7.749-7.737-12.988-8.93
				c-3.857-0.914-11.606-1.374-23.248-1.374H918.566z"/>
			<path fill="#777677" d="M1024.329,5140.551l30.778-5.907c1.31,7.51,3.965,13.211,7.968,17.104
				c4.001,3.893,9.605,5.837,16.808,5.837c7.93,0,13.898-1.83,17.901-5.493c2.69-2.563,4.038-5.999,4.038-10.304
				c0-2.93-0.729-5.358-2.184-7.281c-1.527-1.831-4.949-3.524-10.26-5.083c-24.74-6.868-40.421-13.141-47.042-18.819
				c-9.168-7.877-13.751-18.821-13.751-32.834c0-12.639,3.964-23.262,11.896-31.87c7.93-8.606,20.228-12.914,36.891-12.914
				c15.862,0,27.649,3.253,35.363,9.753c7.713,6.504,13.024,16.121,15.936,28.85l-28.923,6.73c-1.239-5.676-3.586-10.027-7.04-13.05
				c-3.457-3.021-8.389-4.533-14.791-4.533c-8.076,0-13.86,1.422-17.354,4.258c-2.33,2.017-3.493,4.627-3.493,7.831
				c0,2.747,1.019,5.083,3.056,7.006c2.765,2.565,12.315,6.183,28.651,10.854c16.333,4.67,27.74,10.395,34.217,17.171
				c6.403,6.868,9.604,16.44,9.604,28.712c0,13.373-4.438,24.865-13.315,34.481c-8.879,9.615-22.012,14.424-39.402,14.424
				c-15.79,0-28.287-4.028-37.491-12.089C1033.186,5165.326,1027.166,5154.38,1024.329,5140.551z"/>
		</g>
	</g>
</g>
<g>
	<circle fill="none" stroke="#777677" stroke-width="14" stroke-miterlimit="10" cx="355.087" cy="5088.927" r="219.255"/>
	<g>
		<g>
			<path fill="#777677" d="M449.054,5055.907c4.376-8.454,7.609-15.368,9.698-20.739c2.089-5.372,3.134-9.848,3.134-13.427
				c0-2.985-0.35-5.372-1.045-7.162c-0.697-1.792-1.99-3.283-3.879-4.477c-1.891-1.194-4.476-2.037-7.758-2.536l2.238-9.848h63.41
				l-2.238,9.848c-3.282,0.596-6.192,1.791-8.728,3.58c-2.537,1.791-4.949,4.178-7.236,7.161c-2.29,2.985-4.528,6.393-6.714,10.222
				c-2.189,3.83-5.124,9.174-8.803,16.038l-85.491,157.853h-35.808l-0.298-96.084v-25.364c0-6.464,0.048-13.227,0.149-20.292h-1.939
				c-3.283,7.065-6.068,12.981-8.355,17.756l-62.366,123.984h-35.808l-2.983-158.748c-0.201-9.447-0.921-16.61-2.164-21.484
				c-1.245-4.872-2.909-8.379-4.998-10.52c-2.089-2.136-5.024-3.506-8.803-4.102l2.238-9.848h76.39l-2.238,9.848
				c-2.886,0.397-5.348,1.069-7.386,2.013c-2.04,0.947-3.729,2.34-5.073,4.179c-1.342,1.842-2.289,4.203-2.834,7.087
				c-0.548,2.886-0.872,5.521-0.97,7.907l-0.149,17.457l-0.597,56.099c-0.1,8.257-0.35,18.202-0.746,29.84l-0.746,17.755h1.94
				c2.287-5.073,4.749-10.344,7.385-15.815c2.635-5.469,7.435-15.167,14.398-29.094l53.861-107.274h32.675l0.149,97.725
				l0.149,13.279c0,13.928-0.35,27.654-1.044,41.18h1.939c4.674-9.747,13.078-26.607,25.214-50.578L449.054,5055.907z"/>
		</g>
	</g>
</g>
<g>
	<circle fill="none" stroke="#777677" stroke-width="14" stroke-miterlimit="10" cx="2857.996" cy="5088.927" r="219.255"/>
	<g>
		<g>
			<path fill="#777677" d="M2805.527,5195.912h-32.504l-4.516,15.293h-29.232l34.824-92.65h31.229l34.814,92.65h-29.98
				L2805.527,5195.912z M2799.588,5175.877l-10.227-33.307l-10.119,33.307H2799.588z"/>
			<path fill="#777677" d="M2833.002,5118.555h29.928l20.854,66.675l20.588-66.675h29.057l-34.402,92.65h-31.033L2833.002,5118.555z
				"/>
			<path fill="#777677" d="M2943.918,5118.555h28.693v92.65h-28.693V5118.555z"/>
		</g>
	</g>
	<path fill="#777677" d="M2859.736,4941.295c-37.607,0-68.094,30.487-68.094,68.095c0,37.605,30.486,68.093,68.094,68.093
		s68.094-30.487,68.094-68.093C2927.83,4971.782,2897.344,4941.295,2859.736,4941.295z M2888.498,5011.473l-43.734,25.249
		c-1.984,1.145-3.607,0.208-3.607-2.083v-50.5c0-2.291,1.623-3.228,3.607-2.082l43.734,25.25
		C2890.482,5008.451,2890.482,5010.326,2888.498,5011.473z"/>
</g>
<g>
	<circle fill="none" stroke="#777677" stroke-width="14" stroke-miterlimit="10" cx="2232.269" cy="5088.927" r="219.255"/>
	<g>
		<g>
			<path fill="#777677" d="M2123.477,5117.927h32.17l12.405,48.165l12.317-48.165h32.15v79.161h-20.032v-60.371l-15.438,60.371
				h-18.132l-15.408-60.371v60.371h-20.033V5117.927z"/>
			<path fill="#777677" d="M2228.018,5117.927h40.66c8.855,0,15.489,2.105,19.898,6.317c4.41,4.212,6.615,10.206,6.615,17.98
				c0,7.992-2.403,14.238-7.209,18.738c-4.805,4.5-12.141,6.75-22.005,6.75h-13.392v29.375h-24.568V5117.927z M2252.586,5151.674
				h5.994c4.716,0,8.028-0.818,9.936-2.455c1.909-1.639,2.862-3.735,2.862-6.291c0-2.484-0.828-4.59-2.483-6.319
				c-1.657-1.727-4.771-2.591-9.342-2.591h-6.967V5151.674z"/>
			<path fill="#777677" d="M2325.754,5140.82l-20.789-3.725c1.727-6.624,5.05-11.699,9.964-15.227
				c4.913-3.53,11.87-5.294,20.869-5.294c10.331,0,17.801,1.928,22.41,5.779c4.607,3.853,6.912,8.692,6.912,14.524
				c0,3.421-0.937,6.518-2.809,9.289s-4.699,5.201-8.479,7.288c3.061,0.757,5.402,1.64,7.021,2.647
				c2.627,1.62,4.671,3.752,6.13,6.398c1.458,2.646,2.188,5.805,2.188,9.477c0,4.608-1.207,9.027-3.619,13.257
				c-2.412,4.23-5.887,7.488-10.422,9.773s-10.493,3.429-17.874,3.429c-7.2,0-12.878-0.846-17.036-2.538
				c-4.157-1.691-7.578-4.166-10.26-7.425c-2.682-3.257-4.742-7.352-6.183-12.284l21.978-2.916c0.863,4.428,2.205,7.498,4.023,9.206
				c1.817,1.712,4.13,2.565,6.938,2.565c2.95,0,5.409-1.08,7.371-3.241c1.961-2.159,2.942-5.038,2.942-8.639
				c0-3.672-0.945-6.514-2.834-8.532c-1.891-2.015-4.455-3.022-7.696-3.022c-1.728,0-4.104,0.432-7.127,1.296l1.135-15.714
				c1.223,0.181,2.178,0.269,2.861,0.269c2.881,0,5.282-0.917,7.209-2.752c1.925-1.837,2.889-4.015,2.889-6.534
				c0-2.412-0.721-4.339-2.159-5.778c-1.441-1.44-3.421-2.16-5.94-2.16c-2.592,0-4.698,0.782-6.318,2.35
				C2327.43,5134.152,2326.33,5136.898,2325.754,5140.82z"/>
		</g>
	</g>
	<path fill="#777677" d="M2272.721,4977.02c-12.792-11.242-15.118-27.718-15.118-27.718c0-2.891-2.343-5.233-5.233-5.233
		s-5.233,2.343-5.233,5.233v101.207c-7.583-4.101-18.343-5.458-29.573-3.011c-19.284,4.2-32.645,18.028-29.844,30.885
		c2.802,12.855,20.704,19.871,39.986,15.669c19.15-4.173,32.457-17.839,29.897-30.618v-65.15c4.597,0.165,16.49,2.394,25.974,19.828
		c12.019,22.098-1.938,43.839-1.938,43.839C2322.891,5017.754,2272.721,4977.02,2272.721,4977.02z"/>
</g>
</svg>
