<?xml version="1.0" encoding="utf-8"?>
<!-- Generator: Adobe Illustrator 15.0.0, SVG Export Plug-In . SVG Version: 6.00 Build 0)  -->
<!DOCTYPE svg PUBLIC "-//W3C//DTD SVG 1.1//EN" "http://www.w3.org/Graphics/SVG/1.1/DTD/svg11.dtd">
<svg version="1.1" id="Layer_1" xmlns="http://www.w3.org/2000/svg" xmlns:xlink="http://www.w3.org/1999/xlink" x="0px" y="0px"
	 width="3197.439px" height="5263px" viewBox="0 0 3197.439 5263" enable-background="new 0 0 3197.439 5263" xml:space="preserve">
<g>
	<rect x="136.398" y="142.379" fill="#ED1F24" width="424.242" height="424.242"/>
	<path fill="#FFFFFF" d="M472.805,396.144c0,0,12.701-28.438-78.961-15.461c0,0-35.892-11.32-59.635-72.06
		c0,0,5.521-34.235,5.246-49.972c0,0-7.731,29.265-9.664,34.511c0,0-15.46-56.875-2.208-69.575c0,0,9.024,1.933,13.071,30.094
		c0,0,5.979-32.495-13.899-33.683c0,0-15.186,0.828-16.29,15.185c0,0-2.209,41.965,11.32,79.238c0,0-66.538,156.543-104.362,161.788
		c0,0-3.589-14.909,44.727-55.77c0,0-73.992,41.414-49.144,57.151c0,0,12.148,11.596,31.198-4.97c0,0,17.946-13.529,40.861-57.979
		c0,0,48.04-16.29,101.877-24.296c0,0,74.268,41.966,85.864,12.701v-3.313c0,0-6.074,18.774-65.434-11.872
		C407.372,387.86,463.694,381.234,472.805,396.144z M288.377,407.462c20.983-31.198,39.481-78.962,39.481-78.962
		c17.117,35.339,47.487,54.942,47.487,54.942C334.485,390.896,288.377,407.462,288.377,407.462z"/>
</g>
<g>
	<rect x="763.767" y="142.379" fill="#0973BA" width="424.243" height="424.242"/>
	<path fill="#FFFFFF" d="M949.619,228.051c0,0,44.409-0.488,82.962,41.97c0,0-18.056-61.49-56.121-60.514
		C976.46,209.506,954.01,207.066,949.619,228.051z"/>
	<path fill="#FFFFFF" d="M1037.462,289.541c0,0-42.671-50.266-99.556-45.385c0,0-46.361-2.441-40.504,44.409
		c0,0,58.583-14.152,88.585,3.416c0,0-86.146,11.225-81.266,81.011c0,0-1.463,58.562,73.691,53.681c0,0,81.012-6.833,71.739-103.948
		c0,0,15.806,1.465,28.305,9.273C1078.456,331.999,1091.454,288.463,1037.462,289.541z M991.1,391.048
		c-42.457,13.177-41.481-22.936-41.481-22.936c2.928-46.362,60.026-47.826,60.026-47.826
		C1038.924,371.039,991.1,391.048,991.1,391.048z"/>
	<circle fill="#FFFFFF" cx="980.362" cy="474.5" r="20.009"/>
</g>
<g>
	<rect x="1391.137" y="142.379" fill="#207F3F" width="424.242" height="424.242"/>
	<polygon fill="#FFFFFF" points="1666.387,476.976 1734.841,476.976 1642.158,336.298 1721.766,215.467 1653.31,215.467 
		1607.93,284.347 1562.552,215.467 1494.097,215.467 1573.703,336.298 1481.021,476.976 1527.171,476.976 1549.475,476.976 
		1614.469,476.976 1614.469,431.596 1579.372,431.596 1607.93,388.25 	"/>
</g>
<g>
	<rect x="2018.506" y="142.379" fill="#FFCA1C" width="424.242" height="424.242"/>
	<rect x="2314.734" y="147.379" fill="#FFFFFF" width="37.787" height="17.748"/>
	<rect x="2352.521" y="165.127" fill="#FFFFFF" width="37.787" height="17.749"/>
	<rect x="2314.734" y="182.875" fill="#FFFFFF" width="37.787" height="17.748"/>
	<rect x="2352.521" y="200.624" fill="#FFFFFF" width="37.787" height="17.748"/>
	<path fill="#FFFFFF" d="M2352.69,218.372c-15.147,0-27.425,12.278-27.425,27.425v43.646c0,15.146,12.277,27.425,27.425,27.425
		s27.425-12.279,27.425-27.425v-43.646C2380.115,230.65,2367.838,218.372,2352.69,218.372z M2361.8,301.388h-18.219v-39.137h18.219
		V301.388z"/>
	<g>
		<path fill="#FFFFFF" d="M2077.164,355.945h110.646v25.288l-71.025,74.052h73.614v27.187h-120.053v-26.237l70.282-73.275h-63.465
			V355.945z"/>
		<path fill="#FFFFFF" d="M2209.561,355.945h39.184v126.526h-39.184V355.945z"/>
		<path fill="#FFFFFF" d="M2276.62,355.945h64.989c14.154,0,24.756,3.366,31.805,10.098c7.047,6.732,10.572,16.312,10.572,28.74
			c0,12.773-3.841,22.757-11.522,29.949c-7.681,7.193-19.404,10.788-35.169,10.788h-21.404v46.951h-39.271V355.945z
			 M2315.891,409.887h9.58c7.536,0,12.83-1.308,15.881-3.927c3.049-2.617,4.573-5.969,4.573-10.055c0-3.97-1.323-7.336-3.97-10.098
			c-2.647-2.762-7.625-4.143-14.932-4.143h-11.133V409.887z"/>
	</g>
</g>
<g>
	<rect x="2645.875" y="142.379" fill="#D14527" width="424.242" height="424.242"/>
	<g>
		<path fill="#FFFFFF" d="M2760.166,232.23H2881.4c26.403,0,46.179,6.279,59.328,18.837c13.147,12.558,19.723,30.429,19.723,53.613
			c0,23.828-7.164,42.451-21.494,55.868c-14.328,13.418-36.199,20.125-65.607,20.125h-39.928v87.585h-73.256V232.23z
			 M2833.422,332.856h17.871c14.061,0,23.934-2.44,29.624-7.326c5.688-4.883,8.532-11.134,8.532-18.756
			c0-7.406-2.471-13.685-7.405-18.837c-4.938-5.152-14.224-7.728-27.854-7.728h-20.769V332.856z"/>
	</g>
</g>
<g>
	<rect x="1394.421" y="752.024" fill="#F26822" width="424.242" height="424.242"/>
	<g>
		<path fill="#FFFFFF" d="M1593.851,1025.596h-62.924l-8.742,29.609h-56.592l67.416-179.366h60.456l67.4,179.366h-58.041
			L1593.851,1025.596z M1582.354,986.811l-19.799-64.479l-19.591,64.479H1582.354z"/>
		<path fill="#FFFFFF" d="M1677.016,875.839h49.796v33.891h-49.796V875.839z M1677.016,925.269h49.796v129.937h-49.796V925.269z"/>
	</g>
</g>
<g>
	<rect x="768.693" y="752.024" fill="#125AA9" width="424.242" height="424.242"/>
	<g>
		<path fill="#FFFFFF" d="M849.457,1072.311V854.846h55.981c21.213,0,35.041,1.09,41.484,3.264
			c9.9,3.264,18.188,10.361,24.868,21.287c6.677,10.929,10.018,25.046,10.018,42.351c0,13.351-1.926,24.576-5.775,33.673
			c-3.85,9.1-8.742,16.243-14.673,21.435c-5.934,5.192-11.963,8.629-18.09,10.31c-8.33,2.076-20.389,3.114-36.182,3.114h-22.747
			v82.031H849.457z M884.341,891.634v61.709h19.093c13.749,0,22.941-1.135,27.578-3.412c4.635-2.274,8.269-5.834,10.902-10.681
			c2.631-4.844,3.949-10.481,3.949-16.911c0-7.91-1.847-14.437-5.54-19.58c-3.693-5.141-8.367-8.356-14.024-9.642
			c-4.166-0.988-12.533-1.484-25.104-1.484H884.341z"/>
		<path fill="#FFFFFF" d="M998.544,1027.364l33.234-6.379c1.415,8.11,4.281,14.267,8.604,18.468
			c4.32,4.205,10.372,6.304,18.149,6.304c8.563,0,15.007-1.977,19.329-5.934c2.906-2.767,4.361-6.476,4.361-11.125
			c0-3.164-0.786-5.786-2.357-7.862c-1.65-1.978-5.345-3.806-11.079-5.489c-26.714-7.417-43.647-14.189-50.796-20.322
			c-9.899-8.504-14.849-20.322-14.849-35.453c0-13.647,4.281-25.118,12.846-34.415c8.563-9.295,21.842-13.944,39.835-13.944
			c17.128,0,29.856,3.512,38.185,10.532c8.328,7.023,14.063,17.407,17.208,31.151l-31.232,7.269
			c-1.337-6.131-3.871-10.829-7.602-14.092c-3.732-3.264-9.057-4.896-15.97-4.896c-8.722,0-14.967,1.535-18.739,4.599
			c-2.516,2.176-3.772,4.995-3.772,8.455c0,2.967,1.1,5.489,3.301,7.565c2.985,2.77,13.297,6.676,30.937,11.719
			c17.637,5.044,29.953,11.225,36.947,18.542c6.913,7.417,10.372,17.752,10.372,31.003c0,14.439-4.793,26.85-14.379,37.233
			c-9.586,10.384-23.768,15.575-42.546,15.575c-17.049,0-30.544-4.35-40.483-13.054
			C1008.108,1054.116,1001.608,1042.297,998.544,1027.364z"/>
	</g>
</g>
<g>
	<rect x="142.966" y="752.024" fill="#295695" width="424.242" height="424.242"/>
	<g>
		<path fill="#FFFFFF" d="M439.394,923.008c4.725-9.128,8.216-16.594,10.472-22.394c2.255-5.8,3.383-10.633,3.383-14.5
			c0-3.222-0.377-5.799-1.128-7.732c-0.752-1.934-2.149-3.544-4.189-4.833c-2.041-1.289-4.833-2.2-8.377-2.739l2.417-10.633h68.47
			l-2.417,10.633c-3.544,0.645-6.686,1.933-9.424,3.866c-2.74,1.933-5.345,4.511-7.814,7.733c-2.472,3.222-4.889,6.902-7.25,11.036
			c-2.364,4.136-5.533,9.908-9.505,17.319l-92.314,170.45h-38.665l-0.322-103.752v-27.388c0-6.981,0.053-14.283,0.161-21.911h-2.094
			c-3.544,7.627-6.553,14.016-9.022,19.171l-67.342,133.879h-38.666l-3.222-171.417c-0.217-10.202-0.995-17.936-2.336-23.199
			c-1.344-5.261-3.141-9.047-5.397-11.358c-2.255-2.308-5.425-3.786-9.505-4.43l2.416-10.633h82.486l-2.416,10.633
			c-3.117,0.431-5.775,1.155-7.975,2.175c-2.203,1.022-4.027,2.525-5.478,4.511c-1.45,1.988-2.472,4.538-3.061,7.652
			c-0.592,3.116-0.941,5.96-1.047,8.539l-0.161,18.849l-0.645,60.576c-0.108,8.916-0.378,19.655-0.805,32.221l-0.806,19.172h2.094
			c2.469-5.478,5.128-11.17,7.975-17.078c2.845-5.905,8.028-16.377,15.547-31.416l58.159-115.835h35.282l0.161,105.524l0.161,14.338
			c0,15.038-0.377,29.86-1.127,44.465h2.094c5.047-10.525,14.122-28.73,27.227-54.615L439.394,923.008z"/>
	</g>
</g>
<g>
	<rect x="2645.875" y="752.024" fill="#0D7FC3" width="424.242" height="424.242"/>
	<g>
		<path fill="#FFFFFF" d="M2798.021,1098.18h-35.097l-4.876,16.515h-31.565l37.603-100.045h33.72l37.595,100.045h-32.372
			L2798.021,1098.18z M2791.607,1076.547l-11.041-35.965l-10.928,35.965H2791.607z"/>
		<path fill="#FFFFFF" d="M2827.688,1014.649h32.316l22.518,71.998l22.229-71.998h31.375l-37.147,100.045h-33.509L2827.688,1014.649
			z"/>
		<path fill="#FFFFFF" d="M2947.456,1014.649h30.982v100.045h-30.982V1014.649z"/>
	</g>
	<path fill="#FFFFFF" d="M2856.556,823.246c-40.608,0-73.526,32.919-73.526,73.528c0,40.607,32.918,73.527,73.526,73.527
		c40.607,0,73.527-32.92,73.527-73.527C2930.083,856.165,2897.163,823.246,2856.556,823.246z M2887.612,899.022l-47.224,27.265
		c-2.142,1.236-3.895,0.225-3.895-2.25v-54.528c0-2.474,1.753-3.486,3.895-2.249l47.224,27.265
		C2889.755,895.761,2889.755,897.786,2887.612,899.022z"/>
</g>
<g>
	<rect x="2020.147" y="752.024" fill="#3A3A3A" width="424.243" height="424.242"/>
	<g>
		<path fill="#FFFFFF" d="M2075.538,1017.649h40.657l15.679,60.874l15.566-60.874h40.632v100.045h-25.318v-76.297l-19.509,76.297
			h-22.917l-19.471-76.297v76.297h-25.319V1017.649z"/>
		<path fill="#FFFFFF" d="M2207.658,1017.649h51.389c11.191,0,19.573,2.662,25.147,7.985c5.572,5.323,8.358,12.897,8.358,22.725
			c0,10.101-3.036,17.995-9.109,23.681c-6.073,5.688-15.345,8.53-27.811,8.53h-16.924v37.125h-31.051V1017.649z M2238.709,1060.302
			h7.575c5.959,0,10.146-1.034,12.557-3.105c2.412-2.07,3.616-4.72,3.616-7.95c0-3.14-1.046-5.801-3.139-7.985
			c-2.093-2.184-6.029-3.276-11.806-3.276h-8.804V1060.302z"/>
		<path fill="#FFFFFF" d="M2331.179,1046.585l-26.273-4.709c2.185-8.371,6.381-14.786,12.591-19.245
			c6.211-4.458,15.003-6.688,26.376-6.688c13.058,0,22.498,2.435,28.321,7.302c5.824,4.868,8.736,10.987,8.736,18.357
			c0,4.323-1.184,8.235-3.549,11.738c-2.367,3.504-5.938,6.575-10.715,9.213c3.866,0.956,6.825,2.071,8.873,3.344
			c3.319,2.048,5.902,4.743,7.744,8.087c1.844,3.344,2.765,7.336,2.765,11.978c0,5.824-1.524,11.408-4.573,16.753
			c-3.048,5.347-7.438,9.464-13.171,12.352c-5.731,2.888-13.262,4.333-22.589,4.333c-9.1,0-16.275-1.069-21.53-3.207
			c-5.255-2.138-9.578-5.266-12.967-9.384c-3.39-4.117-5.993-9.292-7.814-15.525l27.775-3.686c1.093,5.596,2.787,9.476,5.085,11.636
			c2.297,2.161,5.221,3.241,8.769,3.241c3.73,0,6.835-1.365,9.316-4.095c2.479-2.729,3.72-6.369,3.72-10.918
			c0-4.641-1.194-8.234-3.582-10.783c-2.391-2.547-5.631-3.821-9.726-3.821c-2.185,0-5.188,0.546-9.009,1.638l1.434-19.859
			c1.545,0.228,2.752,0.341,3.617,0.341c3.64,0,6.676-1.161,9.109-3.48c2.434-2.321,3.652-5.072,3.652-8.258
			c0-3.048-0.91-5.482-2.731-7.302c-1.819-1.82-4.322-2.73-7.506-2.73c-3.276,0-5.938,0.99-7.985,2.969
			C2333.296,1038.157,2331.906,1041.626,2331.179,1046.585z"/>
	</g>
	<path fill="#FFFFFF" d="M2264.156,839.57c-16.169-14.208-19.108-35.031-19.108-35.031c0-3.653-2.961-6.614-6.612-6.614
		c-3.654,0-6.615,2.961-6.615,6.614v127.907c-9.584-5.181-23.183-6.898-37.376-3.805c-24.37,5.31-41.256,22.786-37.717,39.033
		c3.542,16.246,26.166,25.114,50.536,19.802c24.203-5.273,41.02-22.544,37.784-38.694v-82.34
		c5.812,0.208,20.841,3.025,32.827,25.061c15.188,27.926-2.449,55.403-2.449,55.403C2327.56,891.05,2264.156,839.57,2264.156,839.57
		z"/>
</g>
<g>
	
		<rect x="136.398" y="1350.379" fill="none" stroke="#ED1F24" stroke-width="14" stroke-miterlimit="10" width="424.242" height="424.242"/>
	<path fill="#ED1F24" d="M514.338,1614.836c0,0,15.753-35.271-97.939-19.178c0,0-44.517-14.041-73.967-89.378
		c0,0,6.849-42.463,6.506-61.981c0,0-9.588,36.299-11.985,42.806c0,0-19.177-70.543-2.74-86.296c0,0,11.193,2.396,16.213,37.325
		c0,0,7.416-40.304-17.24-41.777c0,0-18.834,1.027-20.204,18.835c0,0-2.74,52.051,14.04,98.281c0,0-82.528,194.165-129.443,200.671
		c0,0-4.452-18.491,55.476-69.173c0,0-91.775,51.366-60.955,70.886c0,0,15.068,14.384,38.696-6.163c0,0,22.259-16.782,50.681-71.914
		c0,0,59.585-20.204,126.362-30.136c0,0,92.117,52.052,106.5,15.753v-4.109c0,0-7.534,23.285-81.159-14.726
		C433.179,1604.562,503.038,1596.343,514.338,1614.836z M285.586,1628.875c26.026-38.695,48.97-97.938,48.97-97.938
		c21.231,43.832,58.9,68.146,58.9,68.146C342.775,1608.328,285.586,1628.875,285.586,1628.875z"/>
</g>
<g>
	
		<rect x="763.767" y="1350.379" fill="none" stroke="#0973BA" stroke-width="14" stroke-miterlimit="10" width="424.243" height="424.242"/>
	<path fill="#0973BA" d="M942.708,1430.309c0,0,46.301-0.508,86.497,43.758c0,0-18.826-64.109-58.512-63.093
		C970.694,1410.974,947.288,1408.43,942.708,1430.309z"/>
	<path fill="#0973BA" d="M1034.295,1494.418c0,0-44.49-52.407-103.798-47.318c0,0-48.336-2.545-42.23,46.302
		c0,0,61.079-14.756,92.359,3.561c0,0-89.816,11.704-84.728,84.462c0,0-1.525,61.057,76.831,55.97c0,0,84.463-7.124,74.795-108.377
		c0,0,16.479,1.528,29.511,9.667C1077.035,1538.684,1090.586,1493.296,1034.295,1494.418z M985.958,1600.25
		c-44.266,13.738-43.249-23.913-43.249-23.913c3.053-48.339,62.583-49.864,62.583-49.864
		C1035.819,1579.389,985.958,1600.25,985.958,1600.25z"/>
	<circle fill="#0973BA" cx="974.762" cy="1687.258" r="20.861"/>
</g>
<g>
	
		<rect x="1391.137" y="1350.379" fill="none" stroke="#207F3F" stroke-width="14" stroke-miterlimit="10" width="424.242" height="424.242"/>
	<polygon fill="#207F3F" points="1659.123,1686.444 1727.463,1686.444 1634.935,1545.999 1714.409,1425.367 1646.066,1425.367 
		1600.762,1494.134 1555.459,1425.367 1487.117,1425.367 1566.592,1545.999 1474.063,1686.444 1520.137,1686.444 1542.403,1686.444 
		1607.29,1686.444 1607.29,1641.14 1572.252,1641.14 1600.762,1597.865 	"/>
</g>
<g>
	
		<rect x="2018.506" y="1350.379" fill="none" stroke="#FFCA1C" stroke-width="14" stroke-miterlimit="10" width="424.242" height="424.242"/>
	<rect x="2315.396" y="1361.284" fill="#FFCA1C" width="37.725" height="17.718"/>
	<rect x="2353.12" y="1379.002" fill="#FFCA1C" width="37.725" height="17.721"/>
	<rect x="2315.396" y="1396.723" fill="#FFCA1C" width="37.725" height="17.719"/>
	<rect x="2353.12" y="1414.441" fill="#FFCA1C" width="37.725" height="17.718"/>
	<path fill="#FFCA1C" d="M2353.288,1432.159c-15.121,0-27.379,12.258-27.379,27.38v43.573c0,15.121,12.258,27.38,27.379,27.38
		c15.122,0,27.38-12.259,27.38-27.38v-43.573C2380.668,1444.417,2368.41,1432.159,2353.288,1432.159z M2362.383,1515.038h-18.188
		v-39.071h18.188V1515.038z"/>
	<g>
		<g>
			<path fill="#FFCA1C" d="M2078.218,1569.505h110.463v25.246l-70.907,73.93h73.492v27.143h-119.854v-26.195l70.166-73.153h-63.359
				V1569.505z"/>
			<path fill="#FFCA1C" d="M2210.395,1569.505h39.12v126.318h-39.12V1569.505z"/>
			<path fill="#FFCA1C" d="M2277.345,1569.505h64.881c14.131,0,24.715,3.361,31.752,10.082c7.035,6.721,10.556,16.285,10.556,28.692
				c0,12.753-3.834,22.719-11.504,29.899c-7.667,7.18-19.372,10.77-35.111,10.77h-21.369v46.875h-39.204V1569.505z
				 M2316.549,1623.358h9.564c7.524,0,12.81-1.307,15.854-3.921c3.045-2.613,4.566-5.959,4.566-10.038
				c0-3.964-1.322-7.324-3.964-10.082c-2.643-2.756-7.611-4.134-14.906-4.134h-11.115V1623.358z"/>
		</g>
	</g>
</g>
<g>
	
		<rect x="2645.875" y="1350.379" fill="none" stroke="#D14527" stroke-width="14" stroke-miterlimit="10" width="424.242" height="424.242"/>
	<g>
		<g>
			<path fill="#D14527" d="M2763.332,1446.735h121.032c26.361,0,46.104,6.268,59.23,18.806c13.126,12.537,19.69,30.378,19.69,53.523
				c0,23.79-7.152,42.383-21.459,55.776c-14.304,13.396-36.14,20.092-65.498,20.092h-39.862v87.439h-73.134V1446.735z
				 M2836.466,1547.193h17.842c14.037,0,23.895-2.435,29.575-7.313c5.679-4.874,8.519-11.115,8.519-18.725
				c0-7.394-2.467-13.662-7.395-18.806c-4.93-5.145-14.199-7.716-27.807-7.716h-20.734V1547.193z"/>
		</g>
	</g>
</g>
<g>
	
		<rect x="1394.421" y="1960.024" fill="none" stroke="#F26822" stroke-width="14" stroke-miterlimit="10" width="424.242" height="424.242"/>
	<g>
		<g>
			<path fill="#F26822" d="M1581.869,2232.081h-62.779l-8.723,29.541h-56.461l67.261-178.953h60.317l67.244,178.953h-57.906
				L1581.869,2232.081z M1570.398,2193.385l-19.752-64.331l-19.547,64.331H1570.398z"/>
			<path fill="#F26822" d="M1664.842,2082.669h49.682v33.813h-49.682V2082.669z M1664.842,2131.983h49.682v129.639h-49.682V2131.983
				z"/>
		</g>
	</g>
</g>
<g>
	
		<rect x="768.693" y="1960.024" fill="none" stroke="#125AA9" stroke-width="14" stroke-miterlimit="10" width="424.242" height="424.242"/>
	<g>
		<g>
			<path fill="#125AA9" d="M852.263,2278.851v-216.963h55.853c21.165,0,34.96,1.088,41.389,3.256
				c9.877,3.256,18.146,10.338,24.81,21.238c6.663,10.902,9.996,24.988,9.996,42.253c0,13.319-1.922,24.52-5.762,33.596
				c-3.841,9.079-8.721,16.205-14.639,21.386c-5.92,5.18-11.936,8.608-18.049,10.284c-8.31,2.073-20.342,3.109-36.098,3.109h-22.694
				v81.841H852.263z M887.068,2098.593v61.565h19.048c13.717,0,22.889-1.133,27.515-3.405c4.625-2.268,8.25-5.819,10.877-10.654
				c2.625-4.833,3.939-10.458,3.939-16.872c0-7.893-1.843-14.404-5.527-19.535c-3.685-5.13-8.348-8.337-13.992-9.62
				c-4.156-0.984-12.504-1.479-25.045-1.479H887.068z"/>
			<path fill="#125AA9" d="M1001.007,2234.009l33.158-6.363c1.411,8.09,4.271,14.232,8.584,18.425
				c4.31,4.194,10.347,6.29,18.107,6.29c8.543,0,14.972-1.973,19.284-5.92c2.899-2.761,4.35-6.461,4.35-11.1
				c0-3.157-0.784-5.772-2.352-7.844c-1.646-1.973-5.332-3.797-11.052-5.477c-26.653-7.399-43.547-14.156-50.68-20.275
				c-9.876-8.484-14.815-20.275-14.815-35.371c0-13.615,4.271-25.06,12.816-34.334c8.543-9.273,21.792-13.913,39.744-13.913
				c17.088,0,29.787,3.504,38.097,10.508c8.308,7.006,14.03,17.367,17.167,31.079l-31.16,7.251
				c-1.334-6.114-3.862-10.803-7.584-14.059c-3.725-3.256-9.037-4.884-15.934-4.884c-8.701,0-14.933,1.531-18.695,4.588
				c-2.51,2.172-3.763,4.984-3.763,8.436c0,2.961,1.097,5.475,3.293,7.548c2.978,2.763,13.267,6.659,30.866,11.692
				c17.597,5.031,29.885,11.199,36.862,18.499c6.897,7.399,10.348,17.711,10.348,30.932c0,14.406-4.782,26.787-14.346,37.147
				c-9.564,10.359-23.713,15.539-42.448,15.539c-17.011,0-30.474-4.34-40.39-13.023
				C1010.55,2260.699,1004.064,2248.906,1001.007,2234.009z"/>
		</g>
	</g>
</g>
<g>
	
		<rect x="142.966" y="1960.024" fill="none" stroke="#295695" stroke-width="14" stroke-miterlimit="10" width="424.242" height="424.242"/>
	<g>
		<g>
			<path fill="#295695" d="M449.118,2128.193c4.714-9.106,8.197-16.557,10.448-22.342c2.25-5.787,3.376-10.608,3.376-14.466
				c0-3.216-0.377-5.787-1.125-7.716c-0.751-1.929-2.145-3.536-4.179-4.822c-2.037-1.286-4.822-2.194-8.358-2.732l2.411-10.608
				h68.313l-2.411,10.608c-3.536,0.644-6.671,1.93-9.403,3.856c-2.733,1.931-5.332,4.502-7.795,7.717
				c-2.467,3.215-4.877,6.887-7.233,11.011c-2.358,4.127-5.52,9.884-9.483,17.278l-92.102,170.058h-38.576l-0.321-103.513v-27.326
				c0-6.965,0.052-14.25,0.161-21.86h-2.09c-3.536,7.61-6.538,13.985-9.001,19.128l-67.187,133.571h-38.577l-3.214-171.022
				c-0.216-10.179-0.992-17.894-2.331-23.146c-1.341-5.249-3.134-9.026-5.384-11.331c-2.25-2.304-5.412-3.777-9.483-4.421
				l2.411-10.608h82.296l-2.411,10.608c-3.109,0.429-5.761,1.153-7.957,2.17c-2.197,1.02-4.018,2.519-5.465,4.501
				c-1.446,1.984-2.466,4.528-3.054,7.635c-0.59,3.109-0.939,5.947-1.044,8.52l-0.161,18.805l-0.643,60.437
				c-0.108,8.896-0.377,19.609-0.803,32.147l-0.804,19.127h2.089c2.463-5.465,5.116-11.143,7.956-17.038
				c2.838-5.891,8.009-16.339,15.511-31.343l58.025-115.568h35.201l0.161,105.281l0.16,14.306c0,15.003-0.377,29.791-1.125,44.362
				h2.089c5.036-10.5,14.089-28.664,27.165-54.488L449.118,2128.193z"/>
		</g>
	</g>
</g>
<g>
	
		<rect x="2645.875" y="1960.024" fill="none" stroke="#0D7FC3" stroke-width="14" stroke-miterlimit="10" width="424.242" height="424.242"/>
	<g>
		<g>
			<path fill="#0D7FC3" d="M2806.676,2298.559h-35.016l-4.865,16.476h-31.493l37.516-99.815h33.644l37.508,99.815h-32.299
				L2806.676,2298.559z M2800.277,2276.975l-11.016-35.882l-10.902,35.882H2800.277z"/>
			<path fill="#0D7FC3" d="M2836.275,2215.219h32.242l22.465,71.832l22.179-71.832h31.304l-37.063,99.815h-33.431L2836.275,2215.219
				z"/>
			<path fill="#0D7FC3" d="M2955.768,2215.219h30.91v99.815h-30.91V2215.219z"/>
		</g>
	</g>
	<path fill="#0D7FC3" d="M2865.076,2024.256c-40.516,0-73.358,32.844-73.358,73.359c0,40.513,32.843,73.357,73.358,73.357
		c40.514,0,73.358-32.845,73.358-73.357C2938.435,2057.1,2905.59,2024.256,2865.076,2024.256z M2896.062,2099.858l-47.115,27.203
		c-2.137,1.232-3.886,0.223-3.886-2.245v-54.403c0-2.469,1.749-3.479,3.886-2.245l47.115,27.203
		C2898.199,2096.604,2898.199,2098.625,2896.062,2099.858z"/>
</g>
<g>
	
		<rect x="2020.147" y="1960.024" fill="none" stroke="#3A3A3A" stroke-width="14" stroke-miterlimit="10" width="424.243" height="424.242"/>
	<g>
		<g>
			<path fill="#3A3A3A" d="M2083.71,2221.219h40.563l15.643,60.733l15.53-60.733h40.539v99.815h-25.26v-76.12l-19.465,76.12h-22.863
				l-19.428-76.12v76.12h-25.259V2221.219z"/>
			<path fill="#3A3A3A" d="M2215.524,2221.219h51.271c11.166,0,19.528,2.656,25.09,7.967c5.56,5.311,8.34,12.868,8.34,22.673
				c0,10.077-3.03,17.952-9.089,23.626c-6.06,5.676-15.31,8.511-27.746,8.511h-16.885v37.039h-30.98V2221.219z M2246.505,2263.773
				h7.558c5.945,0,10.121-1.032,12.527-3.098s3.608-4.709,3.608-7.933c0-3.132-1.044-5.787-3.132-7.966
				c-2.087-2.179-6.015-3.269-11.778-3.269h-8.783V2263.773z"/>
			<path fill="#3A3A3A" d="M2338.762,2250.088l-26.213-4.697c2.179-8.352,6.365-14.751,12.563-19.201
				c6.195-4.448,14.967-6.673,26.314-6.673c13.027,0,22.446,2.431,28.257,7.285c5.81,4.858,8.716,10.963,8.716,18.315
				c0,4.314-1.182,8.217-3.541,11.712c-2.362,3.495-5.925,6.56-10.691,9.19c3.857,0.954,6.811,2.066,8.854,3.337
				c3.312,2.043,5.889,4.732,7.727,8.068c1.839,3.337,2.758,7.319,2.758,11.95c0,5.81-1.521,11.382-4.563,16.715
				c-3.039,5.333-7.42,9.441-13.14,12.323c-5.718,2.882-13.232,4.323-22.536,4.323c-9.079,0-16.238-1.066-21.482-3.199
				c-5.241-2.134-9.556-5.254-12.937-9.363c-3.382-4.106-5.979-9.27-7.795-15.488l27.711-3.678c1.089,5.584,2.78,9.454,5.072,11.609
				c2.291,2.156,5.209,3.233,8.75,3.233c3.72,0,6.818-1.36,9.294-4.085c2.474-2.723,3.711-6.354,3.711-10.894
				c0-4.631-1.192-8.214-3.574-10.758c-2.384-2.542-5.618-3.813-9.703-3.813c-2.179,0-5.175,0.545-8.987,1.634l1.43-19.814
				c1.542,0.229,2.745,0.342,3.609,0.342c3.631,0,6.66-1.157,9.089-3.473c2.428-2.315,3.644-5.061,3.644-8.238
				c0-3.041-0.908-5.47-2.725-7.285c-1.815-1.816-4.313-2.724-7.49-2.724c-3.268,0-5.924,0.987-7.965,2.962
				C2340.874,2241.679,2339.487,2245.141,2338.762,2250.088z"/>
		</g>
	</g>
	<path fill="#3A3A3A" d="M2271.893,2043.55c-16.131-14.175-19.064-34.949-19.064-34.949c0-3.645-2.953-6.599-6.598-6.599
		s-6.6,2.954-6.6,6.599v127.611c-9.561-5.168-23.129-6.882-37.289-3.796c-24.314,5.297-41.161,22.733-37.629,38.942
		c3.532,16.21,26.104,25.056,50.419,19.757c24.146-5.261,40.925-22.492,37.696-38.605v-82.149
		c5.799,0.208,20.794,3.019,32.751,25.003c15.154,27.862-2.443,55.276-2.443,55.276
		C2335.151,2094.912,2271.893,2043.55,2271.893,2043.55z"/>
</g>
<g>
	<rect x="136.398" y="2590.729" fill="#777677" width="424.242" height="424.242"/>
	<path fill="#FFFFFF" d="M472.805,2844.494c0,0,12.701-28.438-78.961-15.461c0,0-35.892-11.32-59.635-72.061
		c0,0,5.521-34.234,5.246-49.972c0,0-7.731,29.265-9.664,34.511c0,0-15.46-56.875-2.208-69.574c0,0,9.024,1.933,13.071,30.094
		c0,0,5.979-32.495-13.899-33.684c0,0-15.186,0.828-16.29,15.186c0,0-2.209,41.965,11.32,79.238c0,0-66.538,156.543-104.362,161.787
		c0,0-3.589-14.908,44.727-55.77c0,0-73.992,41.414-49.144,57.15c0,0,12.148,11.597,31.198-4.969c0,0,17.946-13.529,40.861-57.979
		c0,0,48.04-16.29,101.877-24.296c0,0,74.268,41.966,85.864,12.701v-3.314c0,0-6.074,18.774-65.434-11.871
		C407.372,2836.211,463.694,2829.584,472.805,2844.494z M288.377,2855.813c20.983-31.197,39.481-78.961,39.481-78.961
		c17.117,35.339,47.487,54.941,47.487,54.941C334.485,2839.247,288.377,2855.813,288.377,2855.813z"/>
</g>
<g>
	<rect x="763.767" y="2590.729" fill="#777677" width="424.243" height="424.242"/>
	<path fill="#FFFFFF" d="M949.619,2676.401c0,0,44.409-0.487,82.962,41.97c0,0-18.056-61.49-56.121-60.514
		C976.46,2657.857,954.01,2655.417,949.619,2676.401z"/>
	<path fill="#FFFFFF" d="M1037.462,2737.892c0,0-42.671-50.266-99.556-45.386c0,0-46.361-2.44-40.504,44.41
		c0,0,58.583-14.152,88.585,3.416c0,0-86.146,11.225-81.266,81.011c0,0-1.463,58.562,73.691,53.681c0,0,81.012-6.832,71.739-103.947
		c0,0,15.806,1.465,28.305,9.273C1078.456,2780.35,1091.454,2736.814,1037.462,2737.892z M991.1,2839.398
		c-42.457,13.178-41.481-22.936-41.481-22.936c2.928-46.362,60.026-47.826,60.026-47.826
		C1038.924,2819.39,991.1,2839.398,991.1,2839.398z"/>
	<circle fill="#FFFFFF" cx="980.362" cy="2922.851" r="20.009"/>
</g>
<g>
	<rect x="1391.137" y="2590.729" fill="#777677" width="424.242" height="424.242"/>
	<polygon fill="#FFFFFF" points="1666.387,2925.326 1734.841,2925.326 1642.158,2784.648 1721.766,2663.817 1653.31,2663.817 
		1607.93,2732.697 1562.552,2663.817 1494.097,2663.817 1573.703,2784.648 1481.021,2925.326 1527.171,2925.326 1549.475,2925.326 
		1614.469,2925.326 1614.469,2879.947 1579.372,2879.947 1607.93,2836.602 	"/>
</g>
<g>
	<rect x="2018.506" y="2590.729" fill="#777677" width="424.242" height="424.242"/>
	<rect x="2314.734" y="2595.729" fill="#FFFFFF" width="37.787" height="17.748"/>
	<rect x="2352.521" y="2613.478" fill="#FFFFFF" width="37.787" height="17.749"/>
	<rect x="2314.734" y="2631.227" fill="#FFFFFF" width="37.787" height="17.748"/>
	<rect x="2352.521" y="2648.975" fill="#FFFFFF" width="37.787" height="17.748"/>
	<path fill="#FFFFFF" d="M2352.69,2666.723c-15.147,0-27.425,12.277-27.425,27.424v43.646c0,15.146,12.277,27.425,27.425,27.425
		s27.425-12.278,27.425-27.425v-43.646C2380.115,2679,2367.838,2666.723,2352.69,2666.723z M2361.8,2749.738h-18.219v-39.137h18.219
		V2749.738z"/>
	<g>
		<path fill="#FFFFFF" d="M2077.164,2804.296h110.646v25.288l-71.025,74.051h73.614v27.188h-120.053v-26.238l70.282-73.274h-63.465
			V2804.296z"/>
		<path fill="#FFFFFF" d="M2209.561,2804.296h39.184v126.526h-39.184V2804.296z"/>
		<path fill="#FFFFFF" d="M2276.62,2804.296h64.989c14.154,0,24.756,3.366,31.805,10.098c7.047,6.731,10.572,16.312,10.572,28.74
			c0,12.773-3.841,22.757-11.522,29.948c-7.681,7.193-19.404,10.789-35.169,10.789h-21.404v46.951h-39.271V2804.296z
			 M2315.891,2858.237h9.58c7.536,0,12.83-1.308,15.881-3.927c3.049-2.617,4.573-5.969,4.573-10.055
			c0-3.971-1.323-7.336-3.97-10.098c-2.647-2.762-7.625-4.143-14.932-4.143h-11.133V2858.237z"/>
	</g>
</g>
<g>
	<rect x="2645.875" y="2590.729" fill="#777677" width="424.242" height="424.242"/>
	<g>
		<path fill="#FFFFFF" d="M2760.166,2680.581H2881.4c26.403,0,46.179,6.278,59.328,18.837c13.147,12.559,19.723,30.43,19.723,53.613
			c0,23.828-7.164,42.451-21.494,55.867c-14.328,13.419-36.199,20.125-65.607,20.125h-39.928v87.585h-73.256V2680.581z
			 M2833.422,2781.207h17.871c14.061,0,23.934-2.441,29.624-7.326c5.688-4.883,8.532-11.135,8.532-18.756
			c0-7.406-2.471-13.686-7.405-18.838c-4.938-5.152-14.224-7.729-27.854-7.729h-20.769V2781.207z"/>
	</g>
</g>
<g>
	<rect x="1394.421" y="3200.375" fill="#777677" width="424.242" height="424.242"/>
	<g>
		<path fill="#FFFFFF" d="M1593.851,3473.947h-62.924l-8.742,29.608h-56.592l67.416-179.366h60.456l67.4,179.366h-58.041
			L1593.851,3473.947z M1582.354,3435.162l-19.799-64.479l-19.591,64.479H1582.354z"/>
		<path fill="#FFFFFF" d="M1677.016,3324.189h49.796v33.892h-49.796V3324.189z M1677.016,3373.619h49.796v129.937h-49.796V3373.619z
			"/>
	</g>
</g>
<g>
	<rect x="768.693" y="3200.375" fill="#777677" width="424.242" height="424.242"/>
	<g>
		<path fill="#FFFFFF" d="M849.457,3520.661v-217.464h55.981c21.213,0,35.041,1.09,41.484,3.264
			c9.9,3.264,18.188,10.36,24.868,21.286c6.677,10.929,10.018,25.046,10.018,42.351c0,13.352-1.926,24.576-5.775,33.674
			c-3.85,9.1-8.742,16.242-14.673,21.434c-5.934,5.192-11.963,8.629-18.09,10.311c-8.33,2.076-20.389,3.114-36.182,3.114h-22.747
			v82.031H849.457z M884.341,3339.984v61.709h19.093c13.749,0,22.941-1.135,27.578-3.411c4.635-2.274,8.269-5.834,10.902-10.681
			c2.631-4.844,3.949-10.48,3.949-16.91c0-7.91-1.847-14.438-5.54-19.58c-3.693-5.142-8.367-8.356-14.024-9.643
			c-4.166-0.988-12.533-1.484-25.104-1.484H884.341z"/>
		<path fill="#FFFFFF" d="M998.544,3475.715l33.234-6.379c1.415,8.11,4.281,14.267,8.604,18.469
			c4.32,4.204,10.372,6.304,18.149,6.304c8.563,0,15.007-1.977,19.329-5.934c2.906-2.767,4.361-6.476,4.361-11.125
			c0-3.163-0.786-5.786-2.357-7.862c-1.65-1.977-5.345-3.806-11.079-5.488c-26.714-7.416-43.647-14.189-50.796-20.322
			c-9.899-8.504-14.849-20.322-14.849-35.453c0-13.646,4.281-25.117,12.846-34.414c8.563-9.295,21.842-13.944,39.835-13.944
			c17.128,0,29.856,3.512,38.185,10.532c8.328,7.023,14.063,17.406,17.208,31.151l-31.232,7.269
			c-1.337-6.131-3.871-10.829-7.602-14.092c-3.732-3.264-9.057-4.896-15.97-4.896c-8.722,0-14.967,1.535-18.739,4.6
			c-2.516,2.176-3.772,4.995-3.772,8.455c0,2.967,1.1,5.488,3.301,7.564c2.985,2.771,13.297,6.676,30.937,11.719
			c17.637,5.045,29.953,11.226,36.947,18.543c6.913,7.417,10.372,17.752,10.372,31.003c0,14.439-4.793,26.85-14.379,37.233
			c-9.586,10.383-23.768,15.574-42.546,15.574c-17.049,0-30.544-4.35-40.483-13.053
			C1008.108,3502.467,1001.608,3490.648,998.544,3475.715z"/>
	</g>
</g>
<g>
	<rect x="142.966" y="3200.375" fill="#777677" width="424.242" height="424.242"/>
	<g>
		<path fill="#FFFFFF" d="M439.394,3371.359c4.725-9.129,8.216-16.595,10.472-22.395s3.383-10.633,3.383-14.5
			c0-3.221-0.377-5.799-1.128-7.732c-0.752-1.934-2.149-3.544-4.189-4.833c-2.041-1.289-4.833-2.2-8.377-2.739l2.417-10.633h68.47
			l-2.417,10.633c-3.544,0.645-6.686,1.934-9.424,3.867c-2.74,1.933-5.345,4.511-7.814,7.732c-2.472,3.223-4.889,6.902-7.25,11.036
			c-2.364,4.136-5.533,9.907-9.505,17.319l-92.314,170.449h-38.665l-0.322-103.752v-27.388c0-6.981,0.053-14.283,0.161-21.911
			h-2.094c-3.544,7.628-6.553,14.017-9.022,19.172l-67.342,133.879h-38.666l-3.222-171.416c-0.217-10.203-0.995-17.936-2.336-23.199
			c-1.344-5.262-3.141-9.047-5.397-11.358c-2.255-2.308-5.425-3.786-9.505-4.431l2.416-10.633h82.486l-2.416,10.633
			c-3.117,0.432-5.775,1.156-7.975,2.176c-2.203,1.021-4.027,2.524-5.478,4.511c-1.45,1.988-2.472,4.538-3.061,7.652
			c-0.592,3.116-0.941,5.96-1.047,8.538l-0.161,18.85l-0.645,60.576c-0.108,8.916-0.378,19.654-0.805,32.221l-0.806,19.172h2.094
			c2.469-5.478,5.128-11.17,7.975-17.078c2.845-5.904,8.028-16.377,15.547-31.415l58.159-115.835h35.282l0.161,105.524l0.161,14.339
			c0,15.037-0.377,29.859-1.127,44.465h2.094c5.047-10.525,14.122-28.73,27.227-54.615L439.394,3371.359z"/>
	</g>
</g>
<g>
	<rect x="2645.875" y="3200.375" fill="#777677" width="424.242" height="424.242"/>
	<g>
		<path fill="#FFFFFF" d="M2798.021,3546.53h-35.097l-4.876,16.515h-31.565L2764.085,3463h33.72l37.595,100.045h-32.372
			L2798.021,3546.53z M2791.607,3524.897l-11.041-35.965l-10.928,35.965H2791.607z"/>
		<path fill="#FFFFFF" d="M2827.688,3463h32.316l22.518,71.998l22.229-71.998h31.375l-37.147,100.045h-33.509L2827.688,3463z"/>
		<path fill="#FFFFFF" d="M2947.456,3463h30.982v100.045h-30.982V3463z"/>
	</g>
	<path fill="#FFFFFF" d="M2856.556,3271.596c-40.608,0-73.526,32.92-73.526,73.528c0,40.607,32.918,73.527,73.526,73.527
		c40.607,0,73.527-32.92,73.527-73.527C2930.083,3304.516,2897.163,3271.596,2856.556,3271.596z M2887.612,3347.373l-47.224,27.265
		c-2.142,1.236-3.895,0.225-3.895-2.25v-54.528c0-2.475,1.753-3.486,3.895-2.249l47.224,27.265
		C2889.755,3344.111,2889.755,3346.137,2887.612,3347.373z"/>
</g>
<g>
	<rect x="2020.147" y="3200.375" fill="#777677" width="424.243" height="424.242"/>
	<g>
		<path fill="#FFFFFF" d="M2075.538,3466h40.657l15.679,60.873L2147.44,3466h40.632v100.045h-25.318v-76.297l-19.509,76.297h-22.917
			l-19.471-76.297v76.297h-25.319V3466z"/>
		<path fill="#FFFFFF" d="M2207.658,3466h51.389c11.191,0,19.573,2.662,25.147,7.984c5.572,5.323,8.358,12.898,8.358,22.725
			c0,10.102-3.036,17.995-9.109,23.682c-6.073,5.688-15.345,8.53-27.811,8.53h-16.924v37.124h-31.051V3466z M2238.709,3508.652
			h7.575c5.959,0,10.146-1.034,12.557-3.105c2.412-2.069,3.616-4.719,3.616-7.949c0-3.141-1.046-5.802-3.139-7.985
			c-2.093-2.185-6.029-3.276-11.806-3.276h-8.804V3508.652z"/>
		<path fill="#FFFFFF" d="M2331.179,3494.936l-26.273-4.709c2.185-8.371,6.381-14.785,12.591-19.245
			c6.211-4.458,15.003-6.688,26.376-6.688c13.058,0,22.498,2.435,28.321,7.302c5.824,4.869,8.736,10.987,8.736,18.357
			c0,4.323-1.184,8.236-3.549,11.738c-2.367,3.504-5.938,6.575-10.715,9.213c3.866,0.955,6.825,2.071,8.873,3.344
			c3.319,2.048,5.902,4.743,7.744,8.087c1.844,3.345,2.765,7.337,2.765,11.978c0,5.824-1.524,11.408-4.573,16.754
			c-3.048,5.346-7.438,9.463-13.171,12.352c-5.731,2.889-13.262,4.333-22.589,4.333c-9.1,0-16.275-1.069-21.53-3.207
			s-9.578-5.266-12.967-9.384c-3.39-4.117-5.993-9.291-7.814-15.525l27.775-3.686c1.093,5.597,2.787,9.477,5.085,11.637
			c2.297,2.16,5.221,3.241,8.769,3.241c3.73,0,6.835-1.365,9.316-4.095c2.479-2.729,3.72-6.369,3.72-10.919
			c0-4.641-1.194-8.233-3.582-10.782c-2.391-2.548-5.631-3.822-9.726-3.822c-2.185,0-5.188,0.547-9.009,1.639l1.434-19.859
			c1.545,0.228,2.752,0.342,3.617,0.342c3.64,0,6.676-1.161,9.109-3.48c2.434-2.321,3.652-5.072,3.652-8.258
			c0-3.049-0.91-5.482-2.731-7.303c-1.819-1.819-4.322-2.729-7.506-2.729c-3.276,0-5.938,0.989-7.985,2.969
			C2333.296,3486.508,2331.906,3489.977,2331.179,3494.936z"/>
	</g>
	<path fill="#FFFFFF" d="M2264.156,3287.921c-16.169-14.208-19.108-35.03-19.108-35.03c0-3.653-2.961-6.614-6.612-6.614
		c-3.654,0-6.615,2.961-6.615,6.614v127.906c-9.584-5.182-23.183-6.898-37.376-3.805c-24.37,5.309-41.256,22.785-37.717,39.032
		c3.542,16.246,26.166,25.114,50.536,19.802c24.203-5.272,41.02-22.544,37.784-38.693v-82.34
		c5.812,0.209,20.841,3.025,32.827,25.061c15.188,27.926-2.449,55.404-2.449,55.404
		C2327.56,3339.4,2264.156,3287.921,2264.156,3287.921z"/>
</g>
<g>
	
		<rect x="136.398" y="3798.729" fill="none" stroke="#777677" stroke-width="14" stroke-miterlimit="10" width="424.242" height="424.242"/>
	<path fill="#777677" d="M514.338,4063.187c0,0,15.753-35.271-97.939-19.178c0,0-44.517-14.041-73.967-89.378
		c0,0,6.849-42.463,6.506-61.981c0,0-9.588,36.299-11.985,42.806c0,0-19.177-70.543-2.74-86.296c0,0,11.193,2.396,16.213,37.325
		c0,0,7.416-40.304-17.24-41.777c0,0-18.834,1.027-20.204,18.835c0,0-2.74,52.051,14.04,98.281c0,0-82.528,194.165-129.443,200.671
		c0,0-4.452-18.491,55.476-69.173c0,0-91.775,51.366-60.955,70.886c0,0,15.068,14.384,38.696-6.163c0,0,22.259-16.782,50.681-71.914
		c0,0,59.585-20.204,126.362-30.136c0,0,92.117,52.052,106.5,15.753v-4.109c0,0-7.534,23.285-81.159-14.726
		C433.179,4052.912,503.038,4044.693,514.338,4063.187z M285.586,4077.226c26.026-38.695,48.97-97.938,48.97-97.938
		c21.231,43.832,58.9,68.146,58.9,68.146C342.775,4056.679,285.586,4077.226,285.586,4077.226z"/>
</g>
<g>
	
		<rect x="763.767" y="3798.729" fill="none" stroke="#777677" stroke-width="14" stroke-miterlimit="10" width="424.243" height="424.242"/>
	<path fill="#777677" d="M942.708,3878.659c0,0,46.301-0.508,86.497,43.758c0,0-18.826-64.109-58.512-63.093
		C970.694,3859.324,947.288,3856.78,942.708,3878.659z"/>
	<path fill="#777677" d="M1034.295,3942.769c0,0-44.49-52.407-103.798-47.318c0,0-48.336-2.545-42.23,46.302
		c0,0,61.079-14.756,92.359,3.561c0,0-89.816,11.704-84.728,84.462c0,0-1.525,61.057,76.831,55.97c0,0,84.463-7.124,74.795-108.377
		c0,0,16.479,1.528,29.511,9.667C1077.035,3987.034,1090.586,3941.646,1034.295,3942.769z M985.958,4048.601
		c-44.266,13.738-43.249-23.913-43.249-23.913c3.053-48.339,62.583-49.864,62.583-49.864
		C1035.819,4027.739,985.958,4048.601,985.958,4048.601z"/>
	<circle fill="#777677" cx="974.762" cy="4135.608" r="20.861"/>
</g>
<g>
	
		<rect x="1391.137" y="3798.729" fill="none" stroke="#777677" stroke-width="14" stroke-miterlimit="10" width="424.242" height="424.242"/>
	<polygon fill="#777677" points="1659.123,4134.795 1727.463,4134.795 1634.935,3994.35 1714.409,3873.718 1646.066,3873.718 
		1600.762,3942.484 1555.459,3873.718 1487.117,3873.718 1566.592,3994.35 1474.063,4134.795 1520.137,4134.795 1542.403,4134.795 
		1607.29,4134.795 1607.29,4089.49 1572.252,4089.49 1600.762,4046.216 	"/>
</g>
<g>
	
		<rect x="2018.506" y="3798.729" fill="none" stroke="#777677" stroke-width="14" stroke-miterlimit="10" width="424.242" height="424.242"/>
	<rect x="2315.396" y="3809.635" fill="#777677" width="37.725" height="17.718"/>
	<rect x="2353.12" y="3827.353" fill="#777677" width="37.725" height="17.721"/>
	<rect x="2315.396" y="3845.073" fill="#777677" width="37.725" height="17.719"/>
	<rect x="2353.12" y="3862.792" fill="#777677" width="37.725" height="17.718"/>
	<path fill="#777677" d="M2353.288,3880.51c-15.121,0-27.379,12.258-27.379,27.38v43.573c0,15.121,12.258,27.38,27.379,27.38
		c15.122,0,27.38-12.259,27.38-27.38v-43.573C2380.668,3892.768,2368.41,3880.51,2353.288,3880.51z M2362.383,3963.389h-18.188
		v-39.071h18.188V3963.389z"/>
	<g>
		<g>
			<path fill="#777677" d="M2078.218,4017.855h110.463v25.246l-70.907,73.93h73.492v27.143h-119.854v-26.195l70.166-73.153h-63.359
				V4017.855z"/>
			<path fill="#777677" d="M2210.395,4017.855h39.12v126.318h-39.12V4017.855z"/>
			<path fill="#777677" d="M2277.345,4017.855h64.881c14.131,0,24.715,3.361,31.752,10.082c7.035,6.721,10.556,16.285,10.556,28.692
				c0,12.753-3.834,22.719-11.504,29.899c-7.667,7.18-19.372,10.77-35.111,10.77h-21.369v46.875h-39.204V4017.855z
				 M2316.549,4071.709h9.564c7.524,0,12.81-1.307,15.854-3.921c3.045-2.613,4.566-5.959,4.566-10.038
				c0-3.964-1.322-7.324-3.964-10.082c-2.643-2.756-7.611-4.134-14.906-4.134h-11.115V4071.709z"/>
		</g>
	</g>
</g>
<g>
	
		<rect x="2645.875" y="3798.729" fill="none" stroke="#777677" stroke-width="14" stroke-miterlimit="10" width="424.242" height="424.242"/>
	<g>
		<g>
			<path fill="#777677" d="M2763.332,3895.086h121.032c26.361,0,46.104,6.268,59.23,18.806c13.126,12.537,19.69,30.378,19.69,53.523
				c0,23.79-7.152,42.383-21.459,55.776c-14.304,13.396-36.14,20.092-65.498,20.092h-39.862v87.439h-73.134V3895.086z
				 M2836.466,3995.544h17.842c14.037,0,23.895-2.435,29.575-7.313c5.679-4.874,8.519-11.115,8.519-18.725
				c0-7.394-2.467-13.662-7.395-18.806c-4.93-5.145-14.199-7.716-27.807-7.716h-20.734V3995.544z"/>
		</g>
	</g>
</g>
<g>
	
		<rect x="1394.421" y="4408.375" fill="none" stroke="#777677" stroke-width="14" stroke-miterlimit="10" width="424.242" height="424.242"/>
	<g>
		<g>
			<path fill="#777677" d="M1581.869,4680.432h-62.779l-8.723,29.541h-56.461l67.261-178.953h60.317l67.244,178.953h-57.906
				L1581.869,4680.432z M1570.398,4641.735l-19.752-64.331l-19.547,64.331H1570.398z"/>
			<path fill="#777677" d="M1664.842,4531.02h49.682v33.813h-49.682V4531.02z M1664.842,4580.334h49.682v129.639h-49.682V4580.334z"
				/>
		</g>
	</g>
</g>
<g>
	
		<rect x="768.693" y="4408.375" fill="none" stroke="#777677" stroke-width="14" stroke-miterlimit="10" width="424.242" height="424.242"/>
	<g>
		<g>
			<path fill="#777677" d="M852.263,4727.201v-216.963h55.853c21.165,0,34.96,1.088,41.389,3.256
				c9.877,3.256,18.146,10.338,24.81,21.238c6.663,10.902,9.996,24.988,9.996,42.253c0,13.319-1.922,24.52-5.762,33.596
				c-3.841,9.079-8.721,16.205-14.639,21.386c-5.92,5.18-11.936,8.608-18.049,10.284c-8.31,2.073-20.342,3.109-36.098,3.109h-22.694
				v81.841H852.263z M887.068,4546.943v61.565h19.048c13.717,0,22.889-1.133,27.515-3.405c4.625-2.268,8.25-5.819,10.877-10.654
				c2.625-4.833,3.939-10.458,3.939-16.872c0-7.893-1.843-14.404-5.527-19.535c-3.685-5.13-8.348-8.337-13.992-9.62
				c-4.156-0.984-12.504-1.479-25.045-1.479H887.068z"/>
			<path fill="#777677" d="M1001.007,4682.359l33.158-6.363c1.411,8.09,4.271,14.232,8.584,18.425
				c4.31,4.194,10.347,6.29,18.107,6.29c8.543,0,14.972-1.973,19.284-5.92c2.899-2.761,4.35-6.461,4.35-11.1
				c0-3.157-0.784-5.772-2.352-7.844c-1.646-1.973-5.332-3.797-11.052-5.477c-26.653-7.399-43.547-14.156-50.68-20.275
				c-9.876-8.484-14.815-20.275-14.815-35.371c0-13.615,4.271-25.06,12.816-34.334c8.543-9.273,21.792-13.913,39.744-13.913
				c17.088,0,29.787,3.504,38.097,10.508c8.308,7.006,14.03,17.367,17.167,31.079l-31.16,7.251
				c-1.334-6.114-3.862-10.803-7.584-14.059c-3.725-3.256-9.037-4.884-15.934-4.884c-8.701,0-14.933,1.531-18.695,4.588
				c-2.51,2.172-3.763,4.984-3.763,8.436c0,2.961,1.097,5.475,3.293,7.548c2.978,2.763,13.267,6.659,30.866,11.692
				c17.597,5.031,29.885,11.199,36.862,18.499c6.897,7.399,10.348,17.711,10.348,30.932c0,14.406-4.782,26.787-14.346,37.147
				c-9.564,10.359-23.713,15.539-42.448,15.539c-17.011,0-30.474-4.34-40.39-13.023
				C1010.55,4709.05,1004.064,4697.257,1001.007,4682.359z"/>
		</g>
	</g>
</g>
<g>
	
		<rect x="142.966" y="4408.375" fill="none" stroke="#777677" stroke-width="14" stroke-miterlimit="10" width="424.242" height="424.242"/>
	<g>
		<g>
			<path fill="#777677" d="M449.118,4576.544c4.714-9.106,8.197-16.557,10.448-22.342c2.25-5.787,3.376-10.608,3.376-14.466
				c0-3.216-0.377-5.787-1.125-7.716c-0.751-1.929-2.145-3.536-4.179-4.822c-2.037-1.286-4.822-2.194-8.358-2.732l2.411-10.608
				h68.313l-2.411,10.608c-3.536,0.644-6.671,1.93-9.403,3.856c-2.733,1.931-5.332,4.502-7.795,7.717
				c-2.467,3.215-4.877,6.887-7.233,11.011c-2.358,4.127-5.52,9.884-9.483,17.278l-92.102,170.058h-38.576l-0.321-103.513v-27.326
				c0-6.965,0.052-14.25,0.161-21.86h-2.09c-3.536,7.61-6.538,13.985-9.001,19.128l-67.187,133.571h-38.577l-3.214-171.022
				c-0.216-10.179-0.992-17.894-2.331-23.146c-1.341-5.249-3.134-9.026-5.384-11.331c-2.25-2.304-5.412-3.777-9.483-4.421
				l2.411-10.608h82.296l-2.411,10.608c-3.109,0.429-5.761,1.153-7.957,2.17c-2.197,1.02-4.018,2.519-5.465,4.501
				c-1.446,1.984-2.466,4.528-3.054,7.635c-0.59,3.109-0.939,5.947-1.044,8.52l-0.161,18.805l-0.643,60.437
				c-0.108,8.896-0.377,19.609-0.803,32.147l-0.804,19.127h2.089c2.463-5.465,5.116-11.143,7.956-17.038
				c2.838-5.891,8.009-16.339,15.511-31.343l58.025-115.568h35.201l0.161,105.281l0.16,14.306c0,15.003-0.377,29.791-1.125,44.362
				h2.089c5.036-10.5,14.089-28.664,27.165-54.488L449.118,4576.544z"/>
		</g>
	</g>
</g>
<g>
	
		<rect x="2645.875" y="4408.375" fill="none" stroke="#777677" stroke-width="14" stroke-miterlimit="10" width="424.242" height="424.242"/>
	<g>
		<g>
			<path fill="#777677" d="M2806.676,4746.909h-35.016l-4.865,16.476h-31.493l37.516-99.815h33.644l37.508,99.815h-32.299
				L2806.676,4746.909z M2800.277,4725.325l-11.016-35.882l-10.902,35.882H2800.277z"/>
			<path fill="#777677" d="M2836.275,4663.569h32.242l22.465,71.832l22.179-71.832h31.304l-37.063,99.815h-33.431L2836.275,4663.569
				z"/>
			<path fill="#777677" d="M2955.768,4663.569h30.91v99.815h-30.91V4663.569z"/>
		</g>
	</g>
	<path fill="#777677" d="M2865.076,4472.606c-40.516,0-73.358,32.844-73.358,73.359c0,40.513,32.843,73.357,73.358,73.357
		c40.514,0,73.358-32.845,73.358-73.357C2938.435,4505.45,2905.59,4472.606,2865.076,4472.606z M2896.062,4548.209l-47.115,27.203
		c-2.137,1.232-3.886,0.223-3.886-2.245v-54.403c0-2.469,1.749-3.479,3.886-2.245l47.115,27.203
		C2898.199,4544.955,2898.199,4546.976,2896.062,4548.209z"/>
</g>
<g>
	
		<rect x="2020.147" y="4408.375" fill="none" stroke="#777677" stroke-width="14" stroke-miterlimit="10" width="424.243" height="424.242"/>
	<g>
		<g>
			<path fill="#777677" d="M2083.71,4669.569h40.563l15.643,60.733l15.53-60.733h40.539v99.815h-25.26v-76.12l-19.465,76.12h-22.863
				l-19.428-76.12v76.12h-25.259V4669.569z"/>
			<path fill="#777677" d="M2215.524,4669.569h51.271c11.166,0,19.528,2.656,25.09,7.967c5.56,5.311,8.34,12.868,8.34,22.673
				c0,10.077-3.03,17.952-9.089,23.626c-6.06,5.676-15.31,8.511-27.746,8.511h-16.885v37.039h-30.98V4669.569z M2246.505,4712.124
				h7.558c5.945,0,10.121-1.032,12.527-3.098s3.608-4.709,3.608-7.933c0-3.132-1.044-5.787-3.132-7.966
				c-2.087-2.179-6.015-3.269-11.778-3.269h-8.783V4712.124z"/>
			<path fill="#777677" d="M2338.762,4698.438l-26.213-4.697c2.179-8.352,6.365-14.751,12.563-19.201
				c6.195-4.448,14.967-6.673,26.314-6.673c13.027,0,22.446,2.431,28.257,7.285c5.81,4.858,8.716,10.963,8.716,18.315
				c0,4.314-1.182,8.217-3.541,11.712c-2.362,3.495-5.925,6.56-10.691,9.19c3.857,0.954,6.811,2.066,8.854,3.337
				c3.312,2.043,5.889,4.732,7.727,8.068c1.839,3.337,2.758,7.319,2.758,11.95c0,5.81-1.521,11.382-4.563,16.715
				c-3.039,5.333-7.42,9.441-13.14,12.323c-5.718,2.882-13.232,4.323-22.536,4.323c-9.079,0-16.238-1.066-21.482-3.199
				c-5.241-2.134-9.556-5.254-12.937-9.363c-3.382-4.106-5.979-9.27-7.795-15.488l27.711-3.678c1.089,5.584,2.78,9.454,5.072,11.609
				c2.291,2.156,5.209,3.233,8.75,3.233c3.72,0,6.818-1.36,9.294-4.085c2.474-2.723,3.711-6.354,3.711-10.894
				c0-4.631-1.192-8.214-3.574-10.758c-2.384-2.542-5.618-3.813-9.703-3.813c-2.179,0-5.175,0.545-8.987,1.634l1.43-19.814
				c1.542,0.229,2.745,0.342,3.609,0.342c3.631,0,6.66-1.157,9.089-3.473c2.428-2.315,3.644-5.061,3.644-8.238
				c0-3.041-0.908-5.47-2.725-7.285c-1.815-1.816-4.313-2.724-7.49-2.724c-3.268,0-5.924,0.987-7.965,2.962
				C2340.874,4690.029,2339.487,4693.491,2338.762,4698.438z"/>
		</g>
	</g>
	<path fill="#777677" d="M2271.893,4491.9c-16.131-14.175-19.064-34.949-19.064-34.949c0-3.645-2.953-6.599-6.598-6.599
		s-6.6,2.954-6.6,6.599v127.611c-9.561-5.168-23.129-6.882-37.289-3.796c-24.314,5.297-41.161,22.733-37.629,38.942
		c3.532,16.21,26.104,25.056,50.419,19.757c24.146-5.261,40.925-22.492,37.696-38.605v-82.149
		c5.799,0.208,20.794,3.019,32.751,25.003c15.154,27.862-2.443,55.276-2.443,55.276
		C2335.151,4543.263,2271.893,4491.9,2271.893,4491.9z"/>
</g>
</svg>
